<svg width="87" height="87" viewBox="0 0 87 87" fill="none" xmlns="http://www.w3.org/2000/svg">
<circle cx="43.5" cy="43.5" r="42" stroke="white" stroke-width="3"/>
<path d="M27.3675 42.0629L31.101 42.0629C31.3131 42.0629 31.5159 41.9741 31.6588 41.8187L41.7485 30.6139L41.7485 63.6447C41.7485 63.8401 41.9144 64 42.1172 64L44.8828 64C45.0856 64 45.2515 63.8401 45.2515 63.6447L45.2515 30.6139L55.3412 41.8187C55.4795 41.9741 55.6823 42.0629 55.899 42.0629L59.6325 42.0629C59.9459 42.0629 60.1164 41.7032 59.909 41.4767L44.6108 24.4897C44.4726 24.336 44.3016 24.2127 44.1095 24.1282C43.9175 24.0437 43.7088 24 43.4977 24C43.2866 24 43.0779 24.0437 42.8859 24.1282C42.6938 24.2127 42.5228 24.336 42.3846 24.4897L27.091 41.4767C26.8836 41.7077 27.0541 42.0629 27.3675 42.0629Z" fill="white"/>
</svg>
