<svg width="38" height="22" viewBox="0 0 38 22" fill="none" xmlns="http://www.w3.org/2000/svg">
<path d="M5.95979 21.5679V18.9279H3.12779V2.84786H5.95979V0.255859H0.175781V21.5679H5.95979Z" fill="black"/>
<path d="M24.1521 14.7038C23.0481 15.8078 21.3921 16.4078 19.9281 16.4078C15.7761 16.4078 14.168 13.5038 14.144 10.7198C14.12 7.91177 15.8721 4.88777 19.9281 4.88777C21.3921 4.88777 22.88 5.39177 23.984 6.47177L26.096 4.43177C24.3681 2.72777 22.2081 1.86377 19.9281 1.86377C13.8561 1.86377 11.0001 6.32777 11.0241 10.7198C11.0481 15.0878 13.688 19.3838 19.9281 19.3838C22.3521 19.3838 24.5841 18.5918 26.3121 16.8878L24.1521 14.7038Z" fill="black"/>
<path d="M36.9993 21.5679V0.255859H31.2153V2.84786H34.0473V18.9279H31.2153V21.5679H36.9993Z" fill="black"/>
</svg>
