<svg xmlns="http://www.w3.org/2000/svg" viewBox="0 0 635.81 119.46"><defs><style>.cls-1{fill:#fff;}</style></defs><title>Asset 1</title><g id="Layer_2" data-name="Layer 2"><g id="Layer_2-2" data-name="Layer 2"><path class="cls-1" d="M622.79,21l-.45.46A5.82,5.82,0,0,1,618.43,23a5,5,0,0,1-5.34-5.24,5.55,5.55,0,0,1,1.49-3.94,5.22,5.22,0,0,1,3.85-1.44,5.29,5.29,0,0,1,3.74,1.46l.44.44,3.11-3-.47-.46A9.53,9.53,0,0,0,618.43,8a9.72,9.72,0,0,0-7.09,2.71,10,10,0,0,0-2.76,7.09c0,4.43,2.62,9.6,9.85,9.6a9.82,9.82,0,0,0,7.05-2.77l.46-.45Z"/><path class="cls-1" d="M618.12,0a17.69,17.69,0,1,0,17.69,17.69A17.71,17.71,0,0,0,618.12,0m13.07,17.69A13.07,13.07,0,1,1,618.12,4.62a13.09,13.09,0,0,1,13.07,13.07"/><path class="cls-1" d="M108.28,79.38c-5.92,5.86-14.8,9-22.66,9-22.28,0-30.9-15.42-31-30.21s9.27-31,31-31a31.15,31.15,0,0,1,21.76,8.41l11.33-10.83A46.71,46.71,0,0,0,85.62,11.18c-32.57,0-47.89,23.7-47.76,47s14.29,46,47.76,46c13,0,25-4.2,34.25-13.25Z"/><path class="cls-1" d="M163.85,13l-40.56,89.23h18.47l7.75-16.82h47.27l7.62,16.82H223L182.44,13Zm-7.5,56.72,16.79-38,16.8,38Z"/><path class="cls-1" d="M275.12,12.83c-14.33,0-28.68.13-43,.13v89.23h17.21V75.93h25.8c44.71,0,44.59-63.1,0-63.1m0,47.68h-25.8V28.89h25.8c21.91,0,22,31.62,0,31.62"/><path class="cls-1" d="M356.32,47.64c-11-1.28-20.47-3.45-20.47-11.22,0-6.63,6.17-11.86,19-11.86,10,0,18.65,4.85,21.78,9.94l13.78-6.88C383.48,13.85,368.65,9.9,354.36,9.9c-16.93.14-35.57,7.66-35.57,26,0,20,17.33,24.86,36.08,27,12.2,1.27,21.26,4.72,21.26,13.13,0,9.69-10.23,13.38-21.12,13.38-11.16,0-21.78-4.33-25.84-14.14l-14.44,7.26c6.83,16.32,21.26,21.93,40,21.93,20.48,0,38.58-8.54,38.58-28.43,0-21.29-17.85-26.13-37-28.42"/><path class="cls-1" d="M462.43,64.21c0,15.29-7.81,24.6-21.55,24.6s-22.81-8.55-22.81-24.6V13.1H401.56V64.21c0,26.89,18,39.89,39.2,39.89,22.18,0,38.19-13.51,38.19-39.89V13.1H462.43Z"/><polygon class="cls-1" points="505.25 12.96 488 12.96 488 102.19 552.31 102.19 552.31 86.64 505.25 86.64 505.25 12.96"/><polygon class="cls-1" points="560.24 2.96 560.24 16.73 574.41 16.73 574.41 105.44 560.24 105.44 560.24 119.46 590.22 119.46 590.22 2.96 560.24 2.96"/><polygon class="cls-1" points="0 119.46 29.98 119.46 29.98 105.44 15.8 105.44 15.8 16.46 29.98 16.46 29.98 2.7 0 2.7 0 119.46"/></g></g></svg>