<svg xmlns="http://www.w3.org/2000/svg" viewBox="0 0 676.37 119.46"><defs><style>.cls-1,.cls-2{fill:#fff;}.cls-2{opacity:0;}</style></defs><title>CAPSUL Logo (white_center)</title><g id="Layer_2" data-name="Layer 2"><g id="Layer_2-2" data-name="Layer 2"><path class="cls-1" d="M663.36,21l-.46.46A5.8,5.8,0,0,1,659,23a4.94,4.94,0,0,1-5.33-5.24,5.55,5.55,0,0,1,1.49-3.94,5.68,5.68,0,0,1,7.58,0l.45.44,3.11-3-.47-.46A9.55,9.55,0,0,0,659,8a9.74,9.74,0,0,0-7.09,2.71,10,10,0,0,0-2.75,7.09c0,4.43,2.61,9.6,9.84,9.6a9.79,9.79,0,0,0,7-2.77l.46-.45Z"/><path class="cls-1" d="M658.69,0a17.69,17.69,0,1,0,17.68,17.69A17.71,17.71,0,0,0,658.69,0m13.06,17.69A13.07,13.07,0,1,1,658.69,4.62a13.09,13.09,0,0,1,13.06,13.07"/><path class="cls-2" d="M22.36,21l-.46.46A5.8,5.8,0,0,1,18,23a4.94,4.94,0,0,1-5.33-5.24,5.55,5.55,0,0,1,1.49-3.94A5.21,5.21,0,0,1,18,12.4a5.26,5.26,0,0,1,3.74,1.46l.45.44,3.11-3-.47-.46A9.55,9.55,0,0,0,18,8,9.74,9.74,0,0,0,10.9,10.7a10,10,0,0,0-2.75,7.09c0,4.43,2.61,9.6,9.84,9.6A9.79,9.79,0,0,0,25,24.62l.46-.45Z"/><path class="cls-2" d="M17.69,0A17.69,17.69,0,1,0,35.37,17.69,17.71,17.71,0,0,0,17.69,0M30.75,17.69A13.07,13.07,0,1,1,17.69,4.62,13.09,13.09,0,0,1,30.75,17.69"/><path class="cls-1" d="M148.84,79.38c-5.91,5.86-14.79,9-22.65,9-22.28,0-30.9-15.42-31-30.21s9.26-31,31-31A31.15,31.15,0,0,1,148,35.65l11.32-10.83a46.68,46.68,0,0,0-33.08-13.64c-32.57,0-47.89,23.7-47.76,47s14.29,46,47.76,46c13,0,25-4.2,34.24-13.25Z"/><path class="cls-1" d="M204.41,13l-40.55,89.23h18.47l7.75-16.82h47.26L245,102.19h18.61L223,13Zm-7.5,56.72,16.79-38,16.81,38Z"/><path class="cls-1" d="M315.69,12.83c-14.34,0-28.68.13-43,.13v89.23h17.2V75.93h25.81c44.71,0,44.58-63.1,0-63.1m0,47.68H289.88V28.89h25.81c21.91,0,22,31.62,0,31.62"/><path class="cls-1" d="M396.89,47.64c-11-1.28-20.47-3.45-20.47-11.22,0-6.63,6.16-11.86,19-11.86,10,0,18.64,4.85,21.78,9.94L431,27.62C424.05,13.85,409.22,9.9,394.92,9.9c-16.93.14-35.57,7.66-35.57,26,0,20,17.33,24.86,36.09,27,12.2,1.27,21.26,4.72,21.26,13.13,0,9.69-10.23,13.38-21.13,13.38-11.15,0-21.77-4.33-25.84-14.14L355.3,82.56c6.82,16.32,21.25,21.93,40,21.93,20.47,0,38.57-8.54,38.57-28.43,0-21.29-17.84-26.13-37-28.42"/><path class="cls-1" d="M503,64.21c0,15.29-7.81,24.6-21.55,24.6s-22.82-8.55-22.82-24.6V13.1H442.12V64.21c0,26.89,18,39.89,39.2,39.89,22.19,0,38.2-13.51,38.2-39.89V13.1H503Z"/><polygon class="cls-1" points="545.82 12.96 528.57 12.96 528.57 102.19 592.87 102.19 592.87 86.64 545.82 86.64 545.82 12.96"/><polygon class="cls-1" points="600.8 2.96 600.8 16.73 614.98 16.73 614.98 105.44 600.8 105.44 600.8 119.46 630.78 119.46 630.78 2.96 600.8 2.96"/><polygon class="cls-1" points="40.56 119.46 70.55 119.46 70.55 105.44 56.36 105.44 56.36 16.46 70.55 16.46 70.55 2.7 40.56 2.7 40.56 119.46"/></g></g></svg>