<svg width="344" height="69" viewBox="0 0 344 69" fill="none" xmlns="http://www.w3.org/2000/svg">
<path d="M62.9529 44.7378C59.5126 48.1577 54.3523 50.0129 49.7787 50.0129C36.8256 50.0129 31.814 41.0153 31.7417 32.3888C31.6653 23.6897 37.1311 14.3171 49.7787 14.3171C54.3523 14.3171 58.9902 15.8818 62.4304 19.2292L69.0175 12.9095C63.6321 7.62635 56.8963 4.94846 49.7787 4.94846C30.8414 4.94846 21.9354 18.7775 22.0078 32.3928C22.0841 45.9315 30.319 59.2444 49.7787 59.2444C57.3424 59.2444 64.3032 56.7883 69.6926 51.5091L62.9529 44.7378Z" fill="black"/>
<path d="M95.2653 5.98492L71.6821 58.0466H82.4208L86.926 48.2303H114.408L118.841 58.0466H129.656L106.076 5.98492H95.2653ZM90.9048 39.0795L100.667 16.9183L110.437 39.0795H90.9048Z" fill="black"/>
<path d="M159.966 5.91226C151.631 5.91226 143.292 5.98486 134.96 5.98486V58.0505H144.96V42.7293H159.962C185.965 42.7252 185.889 5.91226 159.966 5.91226ZM159.966 33.7277H144.964V15.2809H159.966C172.703 15.2809 172.783 33.7277 159.966 33.7277Z" fill="black"/>
<path d="M207.181 26.2183C200.775 25.4722 195.281 24.2059 195.281 19.6728C195.281 15.8052 198.866 12.7563 206.337 12.7563C212.14 12.7563 217.18 15.5794 219.001 18.5557L227.015 14.5429C222.972 6.50919 214.351 4.20233 206.04 4.20233C196.197 4.28299 185.358 8.66683 185.358 19.3744C185.358 31.0498 195.434 33.881 206.337 35.1433C213.431 35.8854 218.699 37.8938 218.699 42.8019C218.699 48.4561 212.751 50.6138 206.417 50.6138C199.931 50.6138 193.754 48.0851 191.391 42.3623L182.999 46.601C186.97 56.1188 195.357 59.3936 206.265 59.3936C218.169 59.3936 228.695 54.4088 228.695 42.8019C228.691 30.3804 218.314 27.5532 207.181 26.2183Z" fill="black"/>
<path d="M268.876 35.8854C268.876 44.8063 264.334 50.2387 256.349 50.2387C248.355 50.2387 243.082 45.2539 243.082 35.8854V6.06555H233.481V35.8854C233.481 51.5736 243.962 59.1596 256.272 59.1596C269.173 59.1596 278.481 51.2792 278.481 35.8854V6.06555H268.876V35.8854V35.8854Z" fill="black"/>
<path d="M293.774 5.98492H283.742V58.0466H321.135V48.9724H293.774V5.98492Z" fill="black"/>
<path d="M325.744 0.14917V8.18285H333.987V59.942H325.744V68.1249H343.178V0.14917H325.744Z" fill="black"/>
<path d="M0 68.125H17.4302V59.9421H9.18331V8.02965H17.4302V0H0V68.125Z" fill="black"/>
</svg>
