<svg width="21" height="23" viewBox="0 0 21 23" fill="none" xmlns="http://www.w3.org/2000/svg">
<ellipse cx="9.53081" cy="14.8831" rx="2.55717" ry="2.59864" fill="#27AE60"/>
<path fill-rule="evenodd" clip-rule="evenodd" d="M9.68668 -0.000244141V4.12842C9.43117 4.10604 9.17258 4.09462 8.91137 4.09462C3.98976 4.09462 0 8.14906 0 13.1505C0 18.1519 3.98976 22.2063 8.91137 22.2063C13.833 22.2063 17.8227 18.1519 17.8227 13.1505C17.8227 12.8583 17.8091 12.5693 17.7825 12.2843H12.338C12.9531 12.97 13.3282 13.8819 13.3282 14.8829C13.3282 17.0139 11.6282 18.7415 9.53119 18.7415C7.43415 18.7415 5.73417 17.0139 5.73417 14.8829C5.73417 12.7519 7.43415 11.0243 9.53119 11.0243C9.55714 11.0243 9.58302 11.0246 9.60884 11.0251V11.0243H17.5757L17.5757 11.0243H21.0002C21.0002 2.77164 13.4579 0.235996 9.68668 -0.000244141ZM14.4908 9.29171C15.8175 9.29171 16.893 8.19878 16.893 6.85057C16.893 5.50236 15.8175 4.40942 14.4908 4.40942C13.1642 4.40942 12.0887 5.50236 12.0887 6.85057C12.0887 8.19878 13.1642 9.29171 14.4908 9.29171Z" fill="#27AE60"/>
</svg>
