<svg width="245" height="39" viewBox="0 0 245 39" fill="none" xmlns="http://www.w3.org/2000/svg">
<circle r="4.34992" transform="matrix(1 0 0 -1 26.6494 19.6896)" stroke="white" stroke-width="3"/>
<line y1="-1.5" x2="5.79989" y2="-1.5" transform="matrix(1 0 0 -1 30.9993 18.8197)" stroke="white" stroke-width="3"/>
<line y1="-1.5" x2="5.79989" y2="-1.5" transform="matrix(1 0 0 -1 16.4996 18.8197)" stroke="white" stroke-width="3"/>
<line y1="-1.5" x2="5.79989" y2="-1.5" transform="matrix(-4.37114e-08 -1 -1 4.37114e-08 25.7794 15.3397)" stroke="white" stroke-width="3"/>
<line y1="-1.5" x2="5.79989" y2="-1.5" transform="matrix(-4.37114e-08 -1 -1 4.37114e-08 25.7794 29.8395)" stroke="white" stroke-width="3"/>
<path d="M42.0191 37.3794H52.4589V26.9396" stroke="white" stroke-width="3"/>
<path d="M12.4398 37.3794H1.99995V26.9396" stroke="white" stroke-width="3"/>
<path d="M42.0191 2H52.4589V12.4398" stroke="white" stroke-width="3"/>
<path d="M12.4398 2H1.99995V12.4398" stroke="white" stroke-width="3"/>
<path d="M92.9848 13.3793V11.5073H90.5128V10.4753L91.7968 4.97927H92.7688L91.5448 10.6313H92.9848V7.89527H94.0048V10.6313H94.9048V11.5073H94.0048V13.3793H92.9848ZM101.325 11.3393C101.325 12.0033 101.141 12.5113 100.773 12.8633C100.413 13.2073 99.9252 13.3793 99.3092 13.3793H99.0692C98.4532 13.3793 97.9612 13.2073 97.5932 12.8633C97.2332 12.5113 97.0532 12.0033 97.0532 11.3393V7.01927C97.0532 6.34727 97.2332 5.83927 97.5932 5.49527C97.9532 5.15127 98.4452 4.97927 99.0692 4.97927H99.3092C99.9332 4.97927 100.425 5.15127 100.785 5.49527C101.145 5.83927 101.325 6.34727 101.325 7.01927V11.3393ZM100.305 6.79127C100.305 6.54327 100.209 6.33127 100.017 6.15527C99.8332 5.97127 99.5972 5.87927 99.3092 5.87927H99.0692C98.7812 5.87927 98.5412 5.97127 98.3492 6.15527C98.1652 6.33127 98.0732 6.54327 98.0732 6.79127V10.0433L100.305 6.79127ZM98.0732 11.5673C98.0732 11.8153 98.1652 12.0313 98.3492 12.2153C98.5412 12.3913 98.7812 12.4793 99.0692 12.4793H99.3092C99.5972 12.4793 99.8332 12.3913 100.017 12.2153C100.209 12.0313 100.305 11.8153 100.305 11.5673V8.32727L98.0732 11.5673ZM106.27 12.1793V13.3793H105.07V12.1793H106.27ZM119.543 5.87927H116.639V4.97927H120.539V6.14327L118.427 13.3793H117.359L119.543 5.87927ZM124.787 12.4793V5.92727L123.095 6.55127V5.57927L124.667 4.97927H125.807V12.4793H127.115V13.3793H123.215V12.4793H124.787ZM131.532 9.58727C131.788 9.21927 131.96 8.95927 132.048 8.80727C132.144 8.64727 132.208 8.48727 132.24 8.32727C132.272 8.16727 132.288 7.93527 132.288 7.63127V6.79127C132.288 6.54327 132.196 6.33127 132.012 6.15527C131.828 5.97927 131.588 5.89127 131.292 5.89127H129.852V4.97927H131.172C131.868 4.97927 132.4 5.15127 132.768 5.49527C133.144 5.83127 133.332 6.33927 133.332 7.01927V7.52327C133.332 7.92327 133.304 8.24727 133.248 8.49527C133.192 8.74327 133.112 8.96327 133.008 9.15527C132.904 9.34727 132.732 9.61527 132.492 9.95927L130.716 12.4673H133.572V13.3793H129.612V12.3233L131.532 9.58727ZM140.28 11.4833C140.28 12.1473 140.12 12.6313 139.8 12.9353C139.48 13.2313 138.96 13.3793 138.24 13.3793H137.904C137.184 13.3793 136.664 13.2313 136.344 12.9353C136.024 12.6313 135.864 12.1473 135.864 11.4833V10.4753C135.864 9.77927 136.124 9.28727 136.644 8.99927C136.22 8.70327 136.008 8.23927 136.008 7.60727V6.85127C136.008 6.21127 136.176 5.73927 136.512 5.43527C136.848 5.13127 137.328 4.97927 137.952 4.97927H138.192C138.816 4.97927 139.296 5.13127 139.632 5.43527C139.968 5.73927 140.136 6.21127 140.136 6.85127V7.60727C140.136 8.23927 139.924 8.70327 139.5 8.99927C140.02 9.28727 140.28 9.77927 140.28 10.4753V11.4833ZM137.808 5.87927C137.536 5.88727 137.34 5.96327 137.22 6.10727C137.108 6.24327 137.052 6.45527 137.052 6.74327V7.72727C137.052 7.98327 137.124 8.19127 137.268 8.35127C137.42 8.50327 137.608 8.58727 137.832 8.60327H138.24C138.488 8.60327 138.692 8.52327 138.852 8.36327C139.012 8.20327 139.092 7.99127 139.092 7.72727V6.74327C139.092 6.43927 139.024 6.21927 138.888 6.08327C138.76 5.94727 138.544 5.87927 138.24 5.87927H137.808ZM139.236 10.3673C139.236 10.1033 139.156 9.89527 138.996 9.74327C138.836 9.58327 138.624 9.50327 138.36 9.50327H137.784C137.52 9.50327 137.308 9.58327 137.148 9.74327C136.988 9.89527 136.908 10.1033 136.908 10.3673V11.6033C136.908 11.8993 136.972 12.1193 137.1 12.2633C137.228 12.4073 137.428 12.4793 137.7 12.4793H138.348C138.652 12.4793 138.876 12.4113 139.02 12.2753C139.164 12.1313 139.236 11.9073 139.236 11.6033V10.3673ZM146.245 7.18727C146.245 7.65127 146.101 8.00727 145.813 8.25527C145.525 8.49527 145.161 8.61527 144.721 8.61527H144.385C143.945 8.61527 143.581 8.49527 143.293 8.25527C143.005 8.00727 142.861 7.65127 142.861 7.18727V6.39527C142.861 5.93127 143.001 5.57927 143.281 5.33927C143.569 5.09127 143.937 4.96727 144.385 4.96727H144.721C145.169 4.96727 145.533 5.09127 145.813 5.33927C146.101 5.57927 146.245 5.93127 146.245 6.39527V7.18727ZM145.417 6.35927C145.417 6.18327 145.349 6.03127 145.213 5.90327C145.085 5.77527 144.921 5.71127 144.721 5.71127H144.385C144.185 5.71127 144.017 5.77527 143.881 5.90327C143.753 6.03127 143.689 6.18327 143.689 6.35927V7.22327C143.689 7.39927 143.753 7.55127 143.881 7.67927C144.017 7.80727 144.185 7.87127 144.385 7.87127H144.721C144.921 7.87127 145.085 7.80727 145.213 7.67927C145.349 7.55127 145.417 7.39927 145.417 7.22327V6.35927ZM156.193 13.3793H155.221V4.97927H156.925L158.821 12.4913V4.97927H159.793V13.3793H158.077L156.193 5.86727V13.3793ZM163.634 13.3793V12.1793H164.834V13.3793L164.09 15.0593H163.154L163.634 13.3793ZM177.867 5.87927H174.963V4.97927H178.863V6.14327L176.751 13.3793H175.683L177.867 5.87927ZM183.711 13.3793V11.5073H181.239V10.4753L182.523 4.97927H183.495L182.271 10.6313H183.711V7.89527H184.731V10.6313H185.631V11.5073H184.731V13.3793H183.711ZM190.516 12.1793V13.3793H189.316V12.1793H190.516ZM205.013 11.3393C205.013 12.0033 204.829 12.5113 204.461 12.8633C204.101 13.2073 203.613 13.3793 202.997 13.3793H202.757C202.141 13.3793 201.649 13.2073 201.281 12.8633C200.921 12.5113 200.741 12.0033 200.741 11.3393V7.01927C200.741 6.34727 200.921 5.83927 201.281 5.49527C201.641 5.15127 202.133 4.97927 202.757 4.97927H202.997C203.621 4.97927 204.113 5.15127 204.473 5.49527C204.833 5.83927 205.013 6.34727 205.013 7.01927V11.3393ZM203.993 6.79127C203.993 6.54327 203.897 6.33127 203.705 6.15527C203.521 5.97127 203.285 5.87927 202.997 5.87927H202.757C202.469 5.87927 202.229 5.97127 202.037 6.15527C201.853 6.33127 201.761 6.54327 201.761 6.79127V10.0433L203.993 6.79127ZM201.761 11.5673C201.761 11.8153 201.853 12.0313 202.037 12.2153C202.229 12.3913 202.469 12.4793 202.757 12.4793H202.997C203.285 12.4793 203.521 12.3913 203.705 12.2153C203.897 12.0313 203.993 11.8153 203.993 11.5673V8.32727L201.761 11.5673ZM211.493 11.3393C211.493 12.0033 211.309 12.5113 210.941 12.8633C210.581 13.2073 210.093 13.3793 209.477 13.3793H209.237C208.621 13.3793 208.129 13.2073 207.761 12.8633C207.401 12.5113 207.221 12.0033 207.221 11.3393V7.01927C207.221 6.34727 207.401 5.83927 207.761 5.49527C208.121 5.15127 208.613 4.97927 209.237 4.97927H209.477C210.101 4.97927 210.593 5.15127 210.953 5.49527C211.313 5.83927 211.493 6.34727 211.493 7.01927V11.3393ZM210.473 6.79127C210.473 6.54327 210.377 6.33127 210.185 6.15527C210.001 5.97127 209.765 5.87927 209.477 5.87927H209.237C208.949 5.87927 208.709 5.97127 208.517 6.15527C208.333 6.33127 208.241 6.54327 208.241 6.79127V10.0433L210.473 6.79127ZM208.241 11.5673C208.241 11.8153 208.333 12.0313 208.517 12.2153C208.709 12.3913 208.949 12.4793 209.237 12.4793H209.477C209.765 12.4793 210.001 12.3913 210.185 12.2153C210.377 12.0313 210.473 11.8153 210.473 11.5673V8.32727L208.241 11.5673ZM217.974 11.3393C217.974 11.9953 217.794 12.4993 217.434 12.8513C217.074 13.2033 216.622 13.3793 216.078 13.3793H215.658C215.114 13.3793 214.662 13.2033 214.302 12.8513C213.942 12.4993 213.762 11.9953 213.762 11.3393V7.01927C213.762 6.33927 213.942 5.83127 214.302 5.49527C214.67 5.15127 215.202 4.97927 215.898 4.97927H217.398V5.89127H215.778C215.482 5.89127 215.242 5.97927 215.058 6.15527C214.874 6.33127 214.782 6.54327 214.782 6.79127V8.09927H215.958C216.646 8.09927 217.154 8.25127 217.482 8.55527C217.81 8.85927 217.974 9.34727 217.974 10.0193V11.3393ZM214.782 11.5673C214.782 11.8233 214.866 12.0393 215.034 12.2153C215.202 12.3913 215.43 12.4793 215.718 12.4793H216.018C216.306 12.4793 216.534 12.3913 216.702 12.2153C216.87 12.0393 216.954 11.8233 216.954 11.5673V9.79127C216.954 9.54327 216.878 9.35127 216.726 9.21527C216.582 9.07127 216.366 8.99927 216.078 8.99927H214.782V11.5673ZM224.454 11.3393C224.454 12.0033 224.27 12.5113 223.902 12.8633C223.542 13.2073 223.054 13.3793 222.438 13.3793H222.198C221.582 13.3793 221.09 13.2073 220.722 12.8633C220.362 12.5113 220.182 12.0033 220.182 11.3393V7.01927C220.182 6.34727 220.362 5.83927 220.722 5.49527C221.082 5.15127 221.574 4.97927 222.198 4.97927H222.438C223.062 4.97927 223.554 5.15127 223.914 5.49527C224.274 5.83927 224.454 6.34727 224.454 7.01927V11.3393ZM223.434 6.79127C223.434 6.54327 223.338 6.33127 223.146 6.15527C222.962 5.97127 222.726 5.87927 222.438 5.87927H222.198C221.91 5.87927 221.67 5.97127 221.478 6.15527C221.294 6.33127 221.202 6.54327 221.202 6.79127V10.0433L223.434 6.79127ZM221.202 11.5673C221.202 11.8153 221.294 12.0313 221.478 12.2153C221.67 12.3913 221.91 12.4793 222.198 12.4793H222.438C222.726 12.4793 222.962 12.3913 223.146 12.2153C223.338 12.0313 223.434 11.8153 223.434 11.5673V8.32727L221.202 11.5673ZM230.491 7.18727C230.491 7.65127 230.347 8.00727 230.059 8.25527C229.771 8.49527 229.407 8.61527 228.967 8.61527H228.631C228.191 8.61527 227.827 8.49527 227.539 8.25527C227.251 8.00727 227.107 7.65127 227.107 7.18727V6.39527C227.107 5.93127 227.247 5.57927 227.527 5.33927C227.815 5.09127 228.183 4.96727 228.631 4.96727H228.967C229.415 4.96727 229.779 5.09127 230.059 5.33927C230.347 5.57927 230.491 5.93127 230.491 6.39527V7.18727ZM229.663 6.35927C229.663 6.18327 229.595 6.03127 229.459 5.90327C229.331 5.77527 229.167 5.71127 228.967 5.71127H228.631C228.431 5.71127 228.263 5.77527 228.127 5.90327C227.999 6.03127 227.935 6.18327 227.935 6.35927V7.22327C227.935 7.39927 227.999 7.55127 228.127 7.67927C228.263 7.80727 228.431 7.87127 228.631 7.87127H228.967C229.167 7.87127 229.331 7.80727 229.459 7.67927C229.595 7.55127 229.663 7.39927 229.663 7.22327V6.35927ZM241.736 9.97127L240.98 13.3793H239.54L239.132 4.97927H240.02L240.38 12.4793L241.376 8.51927H242.12L243.14 12.4793L243.512 4.97927H244.34L243.932 13.3793H242.42L241.736 9.97127Z" fill="white"/>
<path d="M91.8299 32.2553L91.3619 34.3793H90.2939L92.3219 25.9793H93.7019L95.6939 34.3793H94.6259L94.1699 32.2553H91.8299ZM93.9779 31.3553L92.9939 26.7713L92.0219 31.3553H93.9779ZM99.8584 34.3793C99.5864 34.3793 99.3464 34.2833 99.1384 34.0913C98.9384 33.8993 98.8384 33.5953 98.8384 33.1793V26.8793H97.0744V25.9793H99.8584V33.1193C99.8584 33.2473 99.8904 33.3393 99.9544 33.3953C100.018 33.4513 100.126 33.4793 100.278 33.4793H101.874V34.3793H99.8584ZM106.339 34.3793C106.067 34.3793 105.827 34.2833 105.619 34.0913C105.419 33.8993 105.319 33.5953 105.319 33.1793V26.8793H103.555V25.9793H106.339V33.1193C106.339 33.2473 106.371 33.3393 106.435 33.3953C106.499 33.4513 106.607 33.4793 106.759 33.4793H108.355V34.3793H106.339ZM119.144 34.3793C118.448 34.3793 117.912 34.2113 117.536 33.8753C117.168 33.5313 116.984 33.0193 116.984 32.3393V28.0193C116.984 27.3393 117.168 26.8313 117.536 26.4953C117.912 26.1513 118.448 25.9793 119.144 25.9793H120.848V26.8913H119.024C118.728 26.8913 118.488 26.9793 118.304 27.1553C118.12 27.3313 118.028 27.5433 118.028 27.7913V32.5673C118.028 32.8153 118.12 33.0273 118.304 33.2033C118.488 33.3793 118.728 33.4673 119.024 33.4673H120.848V34.3793H119.144ZM127.628 32.4593C127.628 33.1313 127.46 33.6193 127.124 33.9233C126.796 34.2273 126.284 34.3793 125.588 34.3793H125.192C124.496 34.3793 123.98 34.2273 123.644 33.9233C123.316 33.6193 123.152 33.1313 123.152 32.4593V30.2993C123.152 29.6273 123.316 29.1393 123.644 28.8353C123.98 28.5313 124.496 28.3793 125.192 28.3793H125.588C126.284 28.3793 126.796 28.5313 127.124 28.8353C127.46 29.1393 127.628 29.6273 127.628 30.2993V32.4593ZM126.608 30.0593C126.608 29.8113 126.532 29.6193 126.38 29.4833C126.228 29.3473 126.004 29.2793 125.708 29.2793H125.072C124.776 29.2793 124.552 29.3473 124.4 29.4833C124.248 29.6193 124.172 29.8113 124.172 30.0593V32.6993C124.172 32.9473 124.248 33.1393 124.4 33.2753C124.552 33.4113 124.776 33.4793 125.072 33.4793H125.708C126.004 33.4793 126.228 33.4113 126.38 33.2753C126.532 33.1393 126.608 32.9473 126.608 32.6993V30.0593ZM130.641 28.3793V28.6673C130.889 28.4753 131.209 28.3793 131.601 28.3793H132.153C132.801 28.3793 133.281 28.5313 133.593 28.8353C133.913 29.1393 134.073 29.6273 134.073 30.2993V34.3793H133.053V30.0593C133.053 29.8193 132.981 29.6313 132.837 29.4953C132.701 29.3513 132.513 29.2793 132.273 29.2793H131.481C131.217 29.2793 131.021 29.3513 130.893 29.4953C130.765 29.6313 130.701 29.7793 130.701 29.9393V34.3793H129.681V28.3793H130.641ZM138.801 34.3793C138.393 34.3793 138.081 34.2473 137.865 33.9833C137.649 33.7193 137.541 33.3713 137.541 32.9393V29.2793H136.401V28.3793H137.541V26.9393H138.561V28.3793H140.313V29.2793H138.561V32.9993C138.561 33.1753 138.605 33.2993 138.693 33.3713C138.781 33.4433 138.917 33.4793 139.101 33.4793H140.313V34.3793H138.801ZM145.402 25.9793V27.0593H144.262V25.9793H145.402ZM142.558 29.2793V28.3793H145.342V33.4793H147.118V34.3793H144.322V29.2793H142.558ZM150.082 28.3793V28.6673C150.33 28.4753 150.65 28.3793 151.042 28.3793H151.594C152.242 28.3793 152.722 28.5313 153.034 28.8353C153.354 29.1393 153.514 29.6273 153.514 30.2993V34.3793H152.494V30.0593C152.494 29.8193 152.422 29.6313 152.278 29.4953C152.142 29.3513 151.954 29.2793 151.714 29.2793H150.922C150.658 29.2793 150.462 29.3513 150.334 29.4953C150.206 29.6313 150.142 29.7793 150.142 29.9393V34.3793H149.122V28.3793H150.082ZM157.727 34.3793C157.023 34.3793 156.507 34.2313 156.179 33.9353C155.851 33.6313 155.687 33.1393 155.687 32.4593V30.2993C155.687 29.6113 155.835 29.1193 156.131 28.8233C156.427 28.5273 156.919 28.3793 157.607 28.3793H158.171C158.739 28.3793 159.167 28.5393 159.455 28.8593C159.751 29.1713 159.899 29.6313 159.899 30.2393V31.7993H156.707V32.6993C156.707 32.9473 156.783 33.1393 156.935 33.2753C157.087 33.4113 157.311 33.4793 157.607 33.4793H159.515V34.3793H157.727ZM158.903 29.9993C158.903 29.7913 158.835 29.6193 158.699 29.4833C158.563 29.3473 158.391 29.2793 158.183 29.2793H157.487C157.199 29.2793 156.995 29.3473 156.875 29.4833C156.763 29.6113 156.707 29.8033 156.707 30.0593V30.8993H158.903V29.9993ZM163.043 28.3793V28.6673C163.291 28.4753 163.611 28.3793 164.003 28.3793H164.555C165.203 28.3793 165.683 28.5313 165.995 28.8353C166.315 29.1393 166.475 29.6273 166.475 30.2993V34.3793H165.455V30.0593C165.455 29.8193 165.383 29.6313 165.239 29.4953C165.103 29.3513 164.915 29.2793 164.675 29.2793H163.883C163.619 29.2793 163.423 29.3513 163.295 29.4953C163.167 29.6313 163.103 29.7793 163.103 29.9393V34.3793H162.083V28.3793H163.043ZM171.204 34.3793C170.796 34.3793 170.484 34.2473 170.268 33.9833C170.052 33.7193 169.944 33.3713 169.944 32.9393V29.2793H168.804V28.3793H169.944V26.9393H170.964V28.3793H172.716V29.2793H170.964V32.9993C170.964 33.1753 171.008 33.2993 171.096 33.3713C171.184 33.4433 171.32 33.4793 171.504 33.4793H172.716V34.3793H171.204Z" fill="white"/>
</svg>
