<svg width="55" height="43" viewBox="0 0 55 43" fill="none" xmlns="http://www.w3.org/2000/svg">
<path d="M41 4H51V20" stroke="black" stroke-width="3"/>
<path d="M41 39H51V20" stroke="black" stroke-width="3"/>
<path d="M14 4H4V20" stroke="black" stroke-width="3"/>
<path d="M14 39H4V20" stroke="black" stroke-width="3"/>
<path d="M17.5711 18.9191V9.20809H15.7513V13.3006H10.9726V9.20809H9.13892V18.9191H10.9726V14.9931H15.7513V18.9191H17.5711Z" fill="black"/>
<path d="M23.8699 9C20.5081 9 18.8689 11.5665 18.8689 14.1191C18.8689 16.6717 20.4525 19.1272 23.8699 19.1272C27.2872 19.1272 28.8292 16.6162 28.8569 14.1052C28.8847 11.5665 27.2177 9 23.8699 9ZM23.8699 10.6647C26.162 10.6647 27.0788 12.496 27.051 14.1329C27.0232 15.7283 26.162 17.4486 23.8699 17.4486C21.5777 17.4486 20.7165 15.7422 20.6748 14.1468C20.6331 12.5098 21.5777 10.6647 23.8699 10.6647Z" fill="black"/>
<path d="M30.2066 9.19422V18.9052H37.0412V17.2127H32.0403V9.19422H30.2066Z" fill="black"/>
<path d="M42.0278 9.19422C40.8331 9.19422 39.4023 9.19422 38.2076 9.19422V18.9052C39.4023 18.9052 40.8331 18.9052 42.0278 18.9052C45.4312 18.9052 46.9315 16.422 46.8898 13.9665C46.8482 11.5665 45.3618 9.19422 42.0278 9.19422ZM40.0274 10.9283H42.0278C44.1393 10.9283 45.0284 12.4405 45.07 13.9526C45.1117 15.5341 44.2366 17.1434 42.0278 17.1434H40.0274V10.9283Z" fill="black"/>
<path d="M12.8202 23.0671C11.6255 23.0671 10.1947 23.0671 9 23.0671V32.778C10.1947 32.778 11.6255 32.778 12.8202 32.778C16.2236 32.778 17.7239 30.2948 17.6822 27.8393C17.6406 25.4393 16.1542 23.0671 12.8202 23.0671ZM10.8198 24.8012H12.8202C14.9317 24.8012 15.8208 26.3133 15.8624 27.8254C15.9041 29.4069 15.0289 31.0162 12.8202 31.0162H10.8198V24.8012Z" fill="black"/>
<path d="M27.5192 32.6532L24.5742 29.3376C26.4218 28.963 27.033 27.6173 27.033 26.2856C27.033 24.6069 25.8244 23.0809 23.5323 23.0671C21.9904 23.0671 20.4484 23.0532 18.9064 23.0532V32.778H20.7401V29.5318H22.5044L25.3382 32.778H27.5192V32.6532ZM23.5323 24.7734C24.6853 24.7734 25.1993 25.5503 25.1993 26.3272C25.1993 27.104 24.6992 27.8809 23.5323 27.8809H20.7401V24.7734H23.5323Z" fill="black"/>
<path d="M35.9904 32.778H37.9908L33.6288 23.0671H31.6284L27.2665 32.778H29.253L30.0865 30.9468H35.1708L35.9904 32.778ZM34.4345 29.2405H30.8227L32.6286 25.1064L34.4345 29.2405Z" fill="black"/>
<path d="M46.7361 24.274C45.7359 23.289 44.4301 22.7896 43.1242 22.7896C39.693 22.7896 37.9844 25.3145 37.9844 28.0474C37.9844 30.6 39.4708 33 43.1242 33C44.8329 33 46.0415 32.348 47 31.252V27.1595H42.8325V28.7965H45.3191V30.5168C44.5551 31.1272 43.8883 31.2936 43.1242 31.2936C40.7071 31.2936 39.7764 29.6428 39.7764 28.0474C39.7764 26.0497 41.0405 24.4682 43.1242 24.4682C43.9716 24.4682 44.944 24.815 45.5969 25.4393L46.7361 24.274Z" fill="black"/>
</svg>
