<svg xmlns="http://www.w3.org/2000/svg" viewBox="0 0 35.37 35.38"><title>Asset 1</title><g id="Layer_2" data-name="Layer 2"><g id="Layer_2-2" data-name="Layer 2"><path d="M22.36,21l-.46.46A5.8,5.8,0,0,1,18,23a4.94,4.94,0,0,1-5.33-5.24,5.55,5.55,0,0,1,1.49-3.94A5.21,5.21,0,0,1,18,12.4a5.26,5.26,0,0,1,3.74,1.46l.45.44,3.11-3-.47-.46A9.55,9.55,0,0,0,18,8,9.74,9.74,0,0,0,10.9,10.7a10,10,0,0,0-2.75,7.09c0,4.43,2.61,9.6,9.84,9.6A9.79,9.79,0,0,0,25,24.62l.46-.45Z"/><path d="M17.69,0A17.69,17.69,0,1,0,35.37,17.69,17.71,17.71,0,0,0,17.69,0M30.75,17.69A13.07,13.07,0,1,1,17.69,4.62,13.09,13.09,0,0,1,30.75,17.69"/></g></g></svg>