<svg width="70" height="30" viewBox="0 0 70 30" fill="none" xmlns="http://www.w3.org/2000/svg">
<rect width="70" height="22" rx="5" fill="#C4C4C4"/>
<path d="M34.5 30L29.7369 21.75L39.2631 21.75L34.5 30Z" fill="#C4C4C4"/>
<path d="M12.7177 7.98722C12.0157 6.9393 11.1306 6.77652 10.1132 6.77652C8.94322 6.77652 7.37643 7.24452 7.40696 8.75026C7.40696 10.0627 8.73974 10.3272 10.042 10.5816C11.212 10.8054 12.3922 11.0394 12.382 12.1077C12.382 13.3692 10.9882 13.6134 10.1132 13.6134C9.23826 13.6134 8.11913 13.1861 7.68165 12.3213L7.1933 12.5655C7.7427 13.6541 9.00426 14.1119 10.1132 14.1119C11.3036 14.1119 12.9212 13.7253 12.9314 12.1178C12.9314 10.5816 11.507 10.3374 10.1336 10.0729C8.93304 9.84904 7.95635 9.63539 7.95635 8.72991C7.95635 7.59043 9.27896 7.28522 10.1132 7.28522C10.917 7.29539 11.7512 7.41748 12.2701 8.25174L12.7177 7.98722ZM14.4963 8.95374V14H13.9977V8.95374H14.4963ZM13.8553 7.33609C13.8553 7.86513 14.659 7.86513 14.659 7.33609C14.659 6.80704 13.8553 6.80704 13.8553 7.33609ZM15.7726 9.42174H18.8146L15.6098 13.827V14H19.5573V13.532H16.3831L19.5573 9.16739V8.97409H15.7726V9.42174ZM21.0934 8.95374V14H20.5949V8.95374H21.0934ZM20.4525 7.33609C20.4525 7.86513 21.2562 7.86513 21.2562 7.33609C21.2562 6.80704 20.4525 6.80704 20.4525 7.33609ZM22.5224 8.97409V14H23.0209V11.2022C23.0209 10.1644 23.7432 9.38104 24.781 9.37087C25.8696 9.3607 26.5716 9.97113 26.5716 11.1106V14H27.0701V11.1004C27.0701 9.70661 26.1443 8.88252 24.8013 8.88252C24.0993 8.8927 23.3973 9.17756 23.0107 9.86939V8.97409H22.5224ZM31.9251 9.34035C31.5384 9.06565 31.0094 8.88252 30.5007 8.88252C29.1984 8.88252 28.1404 9.76765 28.1404 11.3344C28.1404 12.6774 29.0458 13.766 30.5007 13.766C31.4367 13.766 32.4032 14.1933 32.4032 15.2717C32.4032 16.34 31.5079 16.7877 30.5007 16.7877C29.4935 16.7877 28.6185 16.2993 28.6185 15.2717H28.12C28.12 16.5435 29.1679 17.276 30.5007 17.276C31.8335 17.276 32.8916 16.6249 32.8916 15.2717C32.8916 14.407 32.4032 13.7863 31.5181 13.471C32.3524 13.0945 32.8712 12.2094 32.8712 11.3344C32.8712 10.5205 32.6067 10.0118 32.2506 9.62522L32.739 9.05548L32.4134 8.77061L31.9251 9.34035ZM30.5007 9.38104C31.5384 9.38104 32.3829 10.0627 32.3829 11.3344C32.3829 12.3722 31.5384 13.2675 30.5007 13.2675C29.3511 13.2675 28.6389 12.3722 28.6389 11.3344C28.6389 10.022 29.4731 9.38104 30.5007 9.38104ZM42.3061 12.6672C41.6957 13.2675 40.8818 13.5727 40.078 13.5727C38.0229 13.5727 36.9648 12.128 36.9444 10.4595C36.9343 8.75026 38.0025 7.28522 40.078 7.28522C40.8818 7.28522 41.6855 7.58026 42.2959 8.1907L42.6724 7.86513C41.9602 7.15296 41.014 6.79687 40.078 6.79687C37.6363 6.79687 36.3951 8.5773 36.4154 10.4798C36.4256 12.4027 37.677 14.0814 40.078 14.0814C41.014 14.0814 41.9602 13.7253 42.6724 13.0131L42.3061 12.6672ZM43.7644 6.87826V14H44.2629V11.2429C44.2629 10.195 44.9954 9.38104 46.0535 9.38104C47.1828 9.38104 47.6712 10.083 47.6712 11.1208V14H48.1595V11.1208C48.1595 9.80835 47.4575 8.90287 46.0535 8.90287C45.3515 8.91304 44.6495 9.18774 44.2426 9.91009V6.87826H43.7644ZM53.7915 8.97409V10.0729C53.3744 9.28948 52.5503 8.91304 51.7364 8.91304C50.3324 8.91304 49.1827 9.95078 49.1827 11.487C49.1827 13.0233 50.3324 14.0814 51.7364 14.0814C52.5503 14.0814 53.3031 13.7151 53.7915 12.9317V14H54.29C54.29 12.3213 54.29 10.6528 54.29 8.97409H53.7915ZM51.7364 9.39122C54.5342 9.39122 54.5342 13.593 51.7364 13.593C50.5969 13.593 49.6812 12.7486 49.6812 11.487C49.6812 10.2255 50.5969 9.39122 51.7364 9.39122ZM55.6472 8.97409V14H56.1457V11.0699C56.1457 10.1543 56.8681 9.40139 57.8041 9.39122C58.0991 9.39122 58.3942 9.46243 58.6587 9.62522L58.8825 9.21826C58.5468 9.01478 58.1805 8.91304 57.8041 8.92322C57.1631 8.92322 56.4509 9.18774 56.1355 9.86939L56.1152 8.97409H55.6472ZM60.6106 7.50904V8.97409H59.5423V9.39122H60.6106V12.4536C60.6106 13.4404 60.9565 14.0712 62.0247 14.0712C62.3401 14.0712 62.6555 13.9695 62.9709 13.8169L62.798 13.4099C62.5436 13.532 62.2689 13.6134 62.0247 13.6134C61.2413 13.6134 61.0989 13.1352 61.0989 12.4536V9.39122H62.8081V8.97409H61.0989V7.45817L60.6106 7.50904Z" fill="black"/>
</svg>
