<svg width="20" height="16" viewBox="0 0 20 16" fill="none" xmlns="http://www.w3.org/2000/svg">
<path d="M14 15.7271C17.527 14.3754 19.999 11.438 19.999 7.86355C19.999 4.28913 17.527 1.35166 14 0V1.74746C16.387 2.95844 17.999 5.28343 17.999 7.86355C17.999 10.4437 16.387 12.7687 14 13.9796V15.7271Z" fill="white"/>
<path d="M14 3.49447V12.2318C15.225 11.2707 16 9.41051 16 7.86313C16 6.31575 15.225 4.45558 14 3.49447ZM2 12.2318H4.697L10.445 15.5799C10.5958 15.6674 10.7708 15.7177 10.9516 15.7254C11.1324 15.733 11.3122 15.6979 11.472 15.6236C11.6316 15.5489 11.765 15.4378 11.858 15.3021C11.951 15.1664 12.0001 15.0112 12 14.853V0.87328C11.9999 0.715235 11.9508 0.560173 11.8578 0.424607C11.7648 0.289041 11.6315 0.178049 11.472 0.103452C11.3125 0.0288546 11.1329 -0.00655361 10.9522 0.000998211C10.7715 0.00855003 10.5966 0.058779 10.446 0.146336L4.697 3.49447H2C0.897 3.49447 0 4.27821 0 5.24193V10.4843C0 11.448 0.897 12.2318 2 12.2318ZM2 5.24193H5C5.033 5.24193 5.061 5.22796 5.093 5.22533C5.22601 5.21348 5.35509 5.17905 5.473 5.12398C5.499 5.11088 5.53 5.10913 5.555 5.09515L10 2.50541V13.2208L5.555 10.6311C5.53 10.6163 5.499 10.6136 5.473 10.6023C5.35491 10.5461 5.22491 10.5116 5.091 10.5009C5.059 10.4983 5.032 10.4843 5 10.4843H2V5.24193Z" fill="white"/>
</svg>
