<svg width="1482" height="1113" viewBox="0 0 1482 1113" fill="none" xmlns="http://www.w3.org/2000/svg">
<mask id="mask0" mask-type="alpha" maskUnits="userSpaceOnUse" x="0" y="0" width="1482" height="1113">
<rect width="1482" height="1113" fill="white"/>
</mask>
<g mask="url(#mask0)">
<path d="M1251.59 660.468L1246.06 678.298L1216.05 686.986L1207.07 677.948L1202.71 678.975L1210.85 705.925L1223.04 707.096L1239.3 712.375V717.654L1246.75 716.483L1257.6 703.604V693.066L1263.71 682.529L1270.49 683.7L1262.34 669.054L1261.1 659.626L1251.59 660.468Z" fill="white"/>
<path d="M1421.83 709.54L1420.94 759.741L1429.37 759.351L1440.46 748.238L1449.78 748.629L1455.76 753.23L1457.75 767.403L1476.81 776.03L1481.7 774.489V769.313L1466.4 758.385L1458.85 743.432L1464.84 740.946L1460.41 732.71L1451.55 732.525L1449.32 723.713L1425.83 710.115L1421.83 709.54Z" fill="white"/>
<path d="M619.529 289.214L606.117 288.803L597.615 293.261L597.496 296.568L603.004 301.025L620.128 303.51L619.529 289.214Z" fill="white"/>
<path d="M514.414 461.407L504.642 458.593L463.976 465.145L455.114 470.917L460.527 494.888L444.361 495.443L434.637 508.856L411.478 513.622L411.549 523.378L487.83 573.395L500.834 574.34L544.208 545.275L539.873 540.592L531.73 539.647L526.844 532.622V503.557L523.587 500.742L524.138 493.245L515.468 485.748L514.39 477.778L518.174 475.436L516.545 466.994L514.414 461.407Z" fill="white"/>
<path d="M453.126 471.247H425.464L420.051 481.558L407.573 486.714L397.275 510.623L377.205 520.935L349.016 560.763L376.678 560.291L377.756 548.583H384.797V532.643H409.202L409.753 512.02L433.08 507.337L442.851 493.739L458.036 493.266L453.126 471.247Z" fill="white"/>
<path d="M349.208 562.406L354.429 568.26L353.351 593.567L360.943 588.883L366.356 587.939L373.948 590.28L382.618 600.592L390.761 595.908L430.35 595.436L420.579 538.723L431.069 538.682L411.526 525.844L411.549 534.183L386.809 534.204L386.689 550.123L379.576 550.102L378.666 561.852L349.208 562.406Z" fill="white"/>
<path d="M361.709 590.465L352.273 596.34L350.118 599.626L349.447 602.913L352.92 605.049L364.511 604.905L371.96 603.18L372.798 606.323L372.128 610.472L379.241 613.471L380.726 614.909L390.162 615.196L390.497 611.622L381.875 602.748L372.271 591.595L366.308 589.458L361.709 590.465Z" fill="white"/>
<path d="M353.973 606.939L353.662 609.219L370.235 609.014L371.074 606.898L370.714 604.762L365.948 606.426L353.973 606.939Z" fill="white"/>
<path d="M353.734 610.8L356.704 616.983L358.357 613.162L378.499 614.97L369.781 611.129L353.734 610.8Z" fill="white"/>
<path d="M358.07 619.654L361.423 625.343L370.835 618.401L370.931 616.264L359.842 614.888L358.07 619.654Z" fill="white"/>
<path d="M362.428 626.658L369.709 636.271L379.193 629.205L388.916 628.835L397.011 638.058L403.885 641.94L406.472 637.627L408.771 636.518L408.603 627.028L404.029 615.771L389.994 617.107L372.631 615.915L372.535 619.736L362.428 626.658Z" fill="white"/>
<path d="M370.835 637.318L384.367 648.534L394.018 638.489L387.983 630.375L379.672 631.094L370.835 637.318Z" fill="white"/>
<path d="M385.779 649.766L412.075 664.843L411.453 653.423L403.501 645.391L395.742 639.496L385.779 649.766Z" fill="white"/>
<path d="M414.28 665.295L424.531 659.071L437.272 657.161L450.277 659.564L443.643 650.958L441.703 645.699L443.643 630.15L432.027 630.622L426.758 626.309L415.693 626.555L410.424 627.274L410.975 637.791L408.197 638.756L404.868 644.015L413.442 652.621L414.28 665.295Z" fill="white"/>
<path d="M384.079 601.804L391.455 597.469L432.457 597.264L422.973 540.695L433.799 540.428L486.177 574.71L493.218 575.573L490.56 594.635L457.629 597.202L432.218 613.471L427.596 624.604L409.944 625.241L405.442 614.128L391.91 614.95L392.437 611.314L384.079 601.804Z" fill="white"/>
<path d="M458.635 598.6L467.352 598.004L481.651 615.34L468.382 623.926L458.778 621.811L445.869 621.954L443.786 628.445L432.96 628.897L429.991 625.426L433.823 614.868L458.635 598.6Z" fill="white"/>
<path d="M483.303 614.457L489.41 614.333L494.919 607.247L504.163 605.829L514.007 610.985L535.011 611.499L551.249 605.829L557.356 601.331L557.811 595.415L569.139 585.617L572.133 563.988L564.685 550.595L545.621 546.61L501.505 576.107L495.254 575.593L492.572 596.072L470.059 598.003L483.303 614.457Z" fill="white"/>
<path d="M443.666 645.371L446.348 650.773L453.341 660.18L457.221 660.057L467.807 654.901L467.064 625.549L458.874 623.495L447.402 623.762L443.666 645.371Z" fill="white"/>
<path d="M469.723 653.998L476.142 650.773L475.998 629.513L471.831 623.721L469.148 625.652L469.723 653.998Z" fill="white"/>
<path d="M478.082 650.383H483.16L483.447 638.017L489.866 630.027L489.578 616.121L483.759 615.998L473.771 622.694L477.939 629.513L478.082 650.383Z" fill="white"/>
<path d="M484.932 650.136L494.32 650.526L505.648 661.351L511.157 662.645L515.468 660.838L522.03 660.057L524.257 652.211L533.191 647.178L542.867 646.788L560.589 618.832L560.302 612.526L552.111 607.124L535.729 613.306L513.815 613.039L503.373 607.37L495.925 608.787L492.045 614.58L491.758 630.93L485.507 638.53L484.932 650.136Z" fill="white"/>
<path d="M516.881 461.079L530.126 456.498L534.485 458.922L534.652 461.88L532.616 464.16L532.928 468.206L534.963 469.151V476.423L532.616 479.791L532.928 481.948L541.813 484.639L534.652 494.19L531.85 494.047L531.371 501.729L528.258 502.14L525.599 500.127L526.222 492.321L517.504 485.05L516.402 478.723L520.618 475.889L516.881 461.079Z" fill="white"/>
<path d="M529.191 503.598L532.927 503.064L534.028 495.67H535.897L543.537 484.906L562.385 489.61L567.534 496.471L586.071 503.742L595.723 500.25L594.789 496.758L590.574 493.266L591.053 490.843L597.903 485.872H611.458L616.607 491.787L627.505 493.143L628.918 568.918L620.823 568.651L571.917 546.837L566.624 549.404L546.53 545.091L541.07 538.908L533.118 537.963L529.071 531.78L529.191 503.598Z" fill="white"/>
<path d="M629.494 493.389L635.888 493.533L648.342 496.491L654.258 496.635L661.586 491.376H665.011L671.238 494.334H679.118L680.531 494.252L685.512 506.536L686.925 510.5L688.243 516.436L685.896 517.915L681.848 516.169L677.178 503.105L672.963 502.838L672.651 507.275L675.453 514.957L697.894 538.785L698.373 549.014L691.835 555.484L630.428 554.889L629.494 493.389Z" fill="white"/>
<path d="M559.703 602.132L560.014 596.072L571.367 586.603L574.408 563.351L566.84 550.944L572.133 548.623L623.386 571.526L623.074 593.998L614.045 600.591V612.176L619.961 621.995H609.519L592.227 636.661L591.772 641.098L579.007 640.954L578.839 642.967L571.558 642.145L566.577 634.073L562.841 632.491L563.319 630.026L568.014 626.945V612.525L561.523 611.663L553.692 606.671L559.703 602.132Z" fill="white"/>
<path d="M694.526 631.588L687.477 621.434L686.738 614.048L685.044 614.325L684.586 616.599L675.347 628.174L667.975 625.157L660.622 630.44L645.41 629.69L638.679 625.076L629.019 629.317L628.654 632.141L625.708 633.662L655.214 659.707L671.287 660.489L673.631 663.55L696.626 663.899L696.813 659.482L698.778 656.421L706.445 655.579L696.888 643.688H689.848L688.052 635.243L693.703 633.108L694.526 631.588Z" fill="white"/>
<path d="M701.51 549.978L692.674 557.621L630.882 557.147L631.551 570.643L625.661 570.499L625.231 594.799L616.297 601.394L615.937 611.54L622.382 622.448L629.446 626.023L629.338 626.874L638.965 622.645L646.309 627.676L659.813 628.342L667.616 622.737L674.529 625.562L682.313 615.809L682.968 612.571L688.899 611.604L689.821 620.788L695.752 629.333L710.131 602.81V586.687L720.577 576.127L701.51 549.978Z" fill="white"/>
<path d="M523.85 660.221L531.562 666.301L531.011 675.709L573.306 674.867L576.755 671.539L564.636 660.345L562.84 656.298L570.552 643.912L565.307 635.696L560.9 633.662V629.492L566.002 626.637L566.289 613.655L562.241 613.265L562.17 620.085L544.399 648.534L533.526 649.006L526.077 653.402L523.85 660.221Z" fill="white"/>
<path d="M712.791 599.462L712.192 587.364L721.676 577.874L724.239 579.558L728.909 592.951L751.326 607.268L747.254 611.561L730.849 599.462H712.791Z" fill="white"/>
<path d="M748.165 613.512L746.8 620.413L756.284 620.29L756.428 610.143L752.955 608.315L748.165 613.512Z" fill="white"/>
<path d="M695.498 634.505L712.934 601.229L730.25 601.311L745.602 612.752L744.524 622.18H756.427L757.648 627.849L776.904 637.729L788.783 638.243L766.198 659.051L735.183 667.247H727.495L713.796 657.223L708.384 655.271L697.893 642.023L690.972 642.105L690.158 636.025L695.498 634.505Z" fill="white"/>
<path d="M758.368 620.701L768.139 626.411L771.037 626.288L795.298 619.14L798.053 626.76L796.113 633.19L790.868 636.764L777.767 636.045L759.014 626.165L758.368 620.701Z" fill="white"/>
<path d="M815.56 609.629L820.661 614.518L827.559 610.944L830.049 610.225L826.888 607.596L820.829 609.136L815.56 609.629Z" fill="white"/>
<path d="M797.238 618.668L807.704 615.217L811.416 617.127L811.009 625.097L801.357 648.678L749.123 696.661L743.063 693.087L742.656 672.834L750.512 665.09L767.181 660.674L791.634 638.531L798.028 633.642L799.825 626.494L797.238 618.668Z" fill="white"/>
<path d="M566.577 659.749L577.738 670.102L582.145 665.213L589.162 665.459L590.671 660.694L597.568 656.997L611.89 665.459L620.153 658.435L652.222 659.646L622.476 633.313L626.476 631.177L627.027 626.535L620.273 623.803H610.358L594.383 637.38L593.832 642.967L581.163 642.618L580.756 645.001L572.493 644.282L565.044 656.421L566.577 659.749Z" fill="white"/>
<path d="M506.894 686.658L509.649 685.466L511.708 686.904L509.649 689.636L507.158 688.794L506.894 686.658Z" fill="white"/>
<path d="M512.425 679.16L516.569 678.564L517.958 680.823L515.898 682.734L513.838 682.487L512.425 679.16Z" fill="white"/>
<path d="M521.503 666.651L520.401 670.697L523.706 672.238L526.867 670.205L525.766 666.035L521.503 666.651Z" fill="white"/>
<path d="M544.376 677.373L544.088 682.488L530.581 682.241L522.318 695.942L541.741 714.161L546.555 710.711L546.411 707.137L543.106 705.822V703.316L550.555 699.269L557.165 703.562L564.47 703.686L564.326 682.138L552.758 681.666L552.614 677.147L544.376 677.373Z" fill="white"/>
<path d="M531.443 677.496L531.299 680.351L542.172 680.824L542.028 677.599L531.443 677.496Z" fill="white"/>
<path d="M555.416 677.147L555.272 680.126L566.72 680.372L567.127 705.863L556.661 705.617L550.602 701.57L545.908 703.83L545.692 704.96L548.111 705.966L548.806 711.204L542.339 715.969L543.728 718.475L550.889 713.71H554.338L555.44 716.565L559.99 718.229L574.6 707.63L574.312 699.886L577.354 693.58L586.718 687.623L589.233 667.473L582.575 667.493L574.863 676.552L555.416 677.147Z" fill="white"/>
<path d="M544.758 719.687L548.925 724.329L554.314 719.954L552.733 715.414L551.392 715.332L544.758 719.687Z" fill="white"/>
<path d="M551.536 724.781L576.228 724.411L581.234 730.512L581.042 735.01L582.886 736.448H595.149L598.669 730.512H603.675L605.711 732.278L612.584 732.114L614.62 752.819L626.499 753.148V754.75L658.424 767.095L659.909 769.498H666.591L665.849 760.83L653.778 755.859L654.52 749.286L659.718 738.851L671.597 738.523L661.394 709.478L661.586 697.133L677.728 675.483L677.919 672.443L675.501 671.313L675.596 665.439L672.65 665.213L669.681 661.967L620.943 660.077L612.009 667.534L597.376 659.276L592.227 661.988L588.491 688.958L579.246 695.079L576.468 700.502L576.971 708.533L560.302 720.221L555.871 718.495L556.47 720.734L551.536 724.781Z" fill="white"/>
<path d="M667.549 692.306L674.279 697.626L673.992 703.316L663.55 703.501V697.215L667.549 692.306Z" fill="white"/>
<path d="M663.694 705.267L673.921 705.083L671.262 712.765L668.676 714.696H665.514L663.263 709.499L663.694 705.267Z" fill="white"/>
<path d="M668.698 690.642L675.955 696.476L680.505 693.99L692.816 692.265L694.923 692.45L695.714 688.444L702.659 675.914L696.815 665.479L677.871 665.582L677.751 669.875L680.29 671.97L679.907 676.263L668.698 690.642Z" fill="white"/>
<path d="M698.708 664.823L705.078 675.484L697.438 689.225L696.433 693.395L734.585 713.628L746.416 697.688L740.428 693.518L740.309 672.526L747.805 665.501L735.854 668.911L726.825 669.013L712.695 658.784L708.24 657.141L699.977 657.798L698.516 659.893L698.708 664.823Z" fill="white"/>
<path d="M698.085 757.051L739.926 752.655L730.513 737.044L730.011 722.09L733.052 714.942L693.247 693.498L680.77 695.264L676.435 698.016L676.052 704.281L673.249 712.97L670.327 715.949L666.136 716.277L674.16 740.125L687.26 745.404L696.289 745.63L698.085 757.051Z" fill="white"/>
<path d="M611.818 784.329L619.41 793.367L631.17 793.983L635.337 795.955L647.647 796.078L658.257 783.322L687.907 771.943L690.494 761.919L687.045 747.561L671.573 740.002L661.251 740.618L656.102 750.396L656.245 754.853L668.412 759.927L669.13 770.957L658.664 771.45L656.078 767.732L627.003 757.092L626.14 765.267L612.393 765.637L611.818 784.329Z" fill="white"/>
<path d="M549.715 726.835L557.882 752.983L557.691 761.241L545.74 772.251L543.943 790.142L589.927 790.491L604.872 795.133L617.206 793.757L610.021 786.034L610.045 763.973L624.175 763.459V754.853L612.703 754.442L610.404 734.065L605.566 734.127L602.956 732.114L600.106 732.237L596.322 738.523H581.76L578.383 735.606L579.389 731.477L575.413 726.486L549.715 726.835Z" fill="white"/>
<path d="M689.919 773.442L697.367 780.118L697.224 788.663L698.661 792.257L708.552 783.096L707.402 771.449L702.109 767.978L697.391 747.54L689.224 747.293L692.937 762.021L689.919 773.442Z" fill="white"/>
<path d="M675.572 843.034L682.015 847.615L697.199 839.686L699.642 827.916V808.485L723.999 791.395L728.166 791.518L742.919 779.379L740.62 754.36L701.51 758.591L702.66 766.15L709.389 770.608L710.97 784.226L697.798 795.257L694.636 789.074L695.211 780.899L687.619 773.833L668.986 781.268L686.326 788.827L686.901 810.868L675.429 825.472L675.572 843.034Z" fill="white"/>
<path d="M636.031 799.94L657.514 820.748L673.992 824.343L685.033 809.492L684.17 789.813L666.256 781.885L659.526 784.493L649.491 797.619L635.6 797.496L636.031 799.94Z" fill="white"/>
<path d="M568.708 860.864L576.731 861.357L581.449 865.444L592.634 865.567L595.364 838.33V820.501L602.525 819.268L605.255 800.576L623.457 800.083L629.9 795.503L619.002 795.133L604.249 796.858L588.347 791.908H543.656L544.806 802.795L559.703 821.61L557.116 831.264L557.26 836.338L568.708 860.864Z" fill="white"/>
<path d="M597.352 838.823L602.501 840.179L601.782 852.811L607.075 853.428L619.242 844.02L633.851 845.376L637.731 836.954L656.22 822.473L634.019 800.556L633.731 796.961L631.288 796.345L624.559 801.665L607.075 802.035L604.632 820.727L597.759 822.082L597.352 838.823Z" fill="white"/>
<path d="M674.854 844.513L668.843 845.376L666.256 851.435L670.855 855.03H676.435L681.153 849.217L674.854 844.513Z" fill="white"/>
<path d="M642.617 867.909L649.922 863.082L653.37 863.205L657.538 867.663L657.107 872.12L650.089 874.338V876.064L642.353 875.694L640.485 870.867L642.617 867.909Z" fill="white"/>
<path d="M658.784 823.212L639.863 838.207L635.361 847.471L620.368 845.869L607.89 855.379L599.604 854.681L600.274 841.535L597.328 840.651L595.269 867.539L580.563 867.416L576.133 862.938L569.642 862.877L575.558 877.44L586.12 886.006L578.576 893.544L583.461 902.993L594.766 906.69L603.771 900.117L629.565 900.24L631.409 898.268L642.857 896.543L681.584 863.472L681.44 853.058L677.297 857.659H671.094L663.55 852.237L667.382 844.061L673.968 842.911L673.369 826.109L658.784 823.212ZM649.707 861.213L653.323 861.09L659.191 866.553L659.023 872.88L652.15 875.858L651.718 877.954L641.228 878.056L637.947 871.278L640.941 866.307L649.707 861.213Z" fill="white"/>
<path d="M148.58 96.9729L145.323 101.43L151.191 106.463L148.58 111.495L157.058 120.985L167.477 118.192L181.152 117.082L196.791 131.605L207.209 155.617L198.755 170.694L210.467 169.009L216.981 172.358L217.628 179.629L203.306 180.184L211.113 186.88L220.885 188.564L199.402 213.131L196.791 228.208L201.342 240.491L198.084 247.763L203.952 263.394L215.017 274.014L218.274 273.459L225.435 271.775L226.082 280.71L230.632 286.297L239.087 285.743L245.601 265.079L265.144 244.415L294.459 234.37L312.685 214.815L321.139 218.163H338.718L353.04 205.88L370.619 199.738L372.583 190.249L361.518 181.868L351.747 179.074L346.526 167.346L358.908 161.204L378.451 170.139L384.965 163.997L374.547 158.965L396.701 133.268L392.797 122.094L382.379 121.54L386.282 111.495L399.311 106.463L426.015 86.3534L418.208 79.1025L388.246 81.3414L372.607 94.7545L381.732 77.4387L371.314 75.1997L365.446 84.1349L356.992 77.9933L333.545 80.2322L340.059 71.297L378.475 70.1878L368.703 59.0136L327.031 52.3173L310.098 54.5562L310.745 61.8277L293.165 56.7952L293.812 51.7627L281.43 54.0016L278.819 59.5887L291.848 63.4915L278.173 71.8721L268.401 62.3823L254.726 59.0341L252.762 67.9694H239.087L233.866 58.4795L212.383 55.686L200.671 60.7185L200.024 67.4148L185.056 65.7304L175.931 69.0786L176.578 76.9046V80.8073L159.645 83.6009L151.837 79.1435L146.616 86.3944L154.424 93.6659L170.71 91.9815L172.003 96.4594L159.621 101.492L148.58 96.9729Z" fill="white"/>
<path d="M200.695 184.107L204.599 189.139L202.635 195.281H198.731L193.51 190.249L194.803 186.346L200.695 184.107Z" fill="white"/>
<path d="M363.506 170.139L374.571 172.933L373.925 180.759L362.213 175.726L359.603 172.933L363.506 170.139Z" fill="white"/>
<path d="M1202.47 873.23L1201.63 925.362L1192.29 931.237L1191.45 936.372L1204.19 943.705L1235.64 938.57H1251.78L1257.72 931.216L1293.41 925.342L1318.89 931.956L1317.19 940.768L1320.59 949.58L1340.13 946.642L1340.97 951.038L1328.23 959.111L1332.47 962.048L1341.81 959.111L1339.27 983.349L1357.11 995.098L1367.32 992.161L1372.42 996.556L1402.16 992.88L1430.21 953.955L1440.41 951.757L1460.79 919.446L1465.89 891.552L1453.15 877.605L1458.25 874.667L1448.05 847.492L1437.01 840.878L1438.71 804.172L1428.51 797.557L1425.97 776.996H1420.87L1403.86 825.452L1394.52 826.191L1373.28 807.828L1385.18 780.652L1363.1 776.976L1338.46 782.85L1331.65 799.735L1320.61 801.933L1319.77 790.183L1274.75 813.682L1275.59 822.494L1268.79 830.566H1251.78L1215.23 843.774L1202.47 873.23Z" fill="white"/>
<path d="M1357.11 1013.48L1352.87 1028.17L1353.71 1038.44L1366.45 1037.7L1380.89 1018.62L1357.11 1013.48Z" fill="white"/>
<path d="M1540.67 1036.98L1547.47 1047.99L1528.76 1063.42L1527.06 1071.49L1514.32 1072.95L1493.08 1089.83L1473.53 1081.76L1471.83 1075.88L1507.52 1062.68L1540.67 1036.98Z" fill="white"/>
<path d="M1109.81 646.438L1109.14 651.122L1125.4 674.559H1130.14L1164.03 723.179L1177.59 724.35L1184.36 707.362L1173.51 701.508L1171.48 692.142L1109.81 646.438Z" fill="white"/>
<path d="M1209.58 677.969L1216.82 685.137L1244.55 676.9L1250.03 658.742L1262.39 657.982L1273.7 650.957L1259.04 641.796L1255.69 636.764L1248.45 648.205L1251.11 654.778L1246.7 660.262L1238.39 658.434L1218.25 671.108L1218.78 678.441L1209.58 677.969Z" fill="white"/>
<path d="M1247.02 649.889L1240.12 657.058L1245.77 658.578L1248.96 654.757L1247.02 649.889Z" fill="white"/>
<path d="M1270.39 711.224L1275.8 716.914L1272.28 725.459V727.082H1280.28L1283.11 705.719L1285.7 706.336L1290.39 725.849L1294.87 726.876L1299.11 718.537L1294.87 705.925L1291.35 700.44L1302.41 693.518L1299.83 690.458L1289.24 696.353H1286.41L1281.24 689.841L1282.89 686.986L1291.61 683.33L1304.78 686.781L1308.78 686.575L1318.67 678.647L1314.67 675.196L1305.5 681.296H1299.61L1290.68 677.64L1284.33 677.846L1277.27 687.602L1272.79 704.487L1270.39 711.224Z" fill="white"/>
<path d="M1329.45 672.998L1324.97 682.344L1332.04 690.273H1334.38L1337.45 684.994L1339.1 683.166L1336.04 680.311L1331.56 678.893L1329.45 672.998Z" fill="white"/>
<path d="M1343.34 703.706L1333.69 705.534L1330.86 708.184L1333.21 711.635L1339.56 709.601L1343.56 707.568L1349.45 711.635L1352.04 709.807L1347.34 704.918L1343.34 703.706Z" fill="white"/>
<path d="M1183.31 730.143L1176.72 734.004L1178.14 737.25L1199.09 741.317L1209.68 742.939L1214.16 747.007L1226.15 747.828L1231.81 751.895L1236.98 750.868L1241.7 747.212L1232.98 743.761L1225.46 738.277L1205.92 734.21L1183.31 730.143Z" fill="white"/>
<path d="M1251.81 747.828L1246.63 750.272L1249.7 753.128L1257.22 750.683L1251.81 747.828Z" fill="white"/>
<path d="M1260.74 746L1261.67 749.862L1267.09 751.073L1269.19 748.835L1266.85 745.774L1260.74 746Z" fill="white"/>
<path d="M1273.7 756.167L1267.11 756.989L1273 761.261H1277.7L1273.7 756.167Z" fill="white"/>
<path d="M1275.56 749.451L1274.15 751.895L1284.74 753.313L1292.98 749.245L1288.28 748.034L1280.76 749.862L1277.93 747.828L1275.56 749.451Z" fill="white"/>
<path d="M1310.17 750.888L1297.93 759.639L1299.11 761.877L1304.28 761.056L1310.39 756.167L1322.39 754.75L1320.04 751.299L1310.17 750.888Z" fill="white"/>
<path d="M1493.99 723.384L1491.71 723.836L1490.32 729.115L1485.96 731.539L1472.86 733.511L1473.39 737.742L1487.18 737.147L1495.93 732.463L1495.4 724.309L1493.99 723.384Z" fill="white"/>
<path d="M1270.01 605.275L1267.95 608.644L1266.8 612.793L1255.35 625.261L1256.04 627.829L1260.86 627.233L1275.73 612.978L1270.01 605.275Z" fill="white"/>
<path d="M1288.54 600.53L1288.3 610.821L1292.66 614.58L1294.27 621.892L1298.63 622.693L1300.69 618.133L1297.26 615.956L1296.35 603.097L1288.54 600.53Z" fill="white"/>
<path d="M1300.93 604.494L1300.69 613.594L1303.2 617.147L1307.56 612.793L1306.41 604.884L1300.93 604.494Z" fill="white"/>
<path d="M1303.66 596.566L1308.02 601.516L1310.08 606.261H1313.98L1313.29 598.148L1308.93 595.58L1303.66 596.566Z" fill="white"/>
<path d="M1312.14 615.175L1313.05 621.112L1305.02 626.658L1298.39 627.253L1291.3 633.785L1291.54 636.764L1298.17 634.977L1302.75 632.409L1306.65 640.913L1313.52 645.062L1316.28 644.261L1318.79 641.693L1313.31 636.949L1316.52 634.771L1320.18 637.339L1322.7 633.785L1320.18 629.431L1319.73 619.735L1312.14 615.175Z" fill="white"/>
<path d="M1274.82 554.827L1268.64 558.586L1267.95 570.459L1277.58 586.48L1280.78 588.658L1284.9 586.275L1291.99 587.261L1293.36 592.602L1298.63 592.992L1301.14 590.034L1297.93 586.275L1294.03 583.112L1285.79 582.331L1281.43 576.19L1286.46 569.658L1286.92 563.927L1283.49 556.614L1274.82 554.827Z" fill="white"/>
<path d="M1278.03 590.239L1279.85 595.785L1283.06 597.572L1285.36 595.005L1281.69 590.65L1278.03 590.239Z" fill="white"/>
<path d="M1199.26 549.075L1193.53 550.451L1189.42 554.806L1192.84 560.537L1197.87 560.927L1203.59 556.573L1204.96 550.842L1199.26 549.075Z" fill="white"/>
<path d="M1265.43 504.173L1256.96 509.719L1256.5 520.401L1263.83 527.713L1265.65 526.337L1265.43 504.173Z" fill="white"/>
<path d="M1303.2 438.668L1299.3 442.037L1300.9 446.782L1304.33 446.987L1306.63 457.278L1309.38 459.846L1314.19 456.087L1316.25 449.35L1310.29 442.037L1303.2 438.668Z" fill="white"/>
<path d="M1324.28 431.952L1317.64 437.293L1317.4 443.434L1319.01 445.222L1327.94 438.69L1327.25 432.158L1324.28 431.952Z" fill="white"/>
<path d="M1315.11 419.278L1303.42 430.76L1305.48 433.533L1311.2 434.129L1321.96 427.001L1329.52 425.81L1336.4 432.732L1341.67 431.151L1343.73 424.413L1353.57 424.208L1363.2 414.307L1358.17 397.875L1355.87 389.165L1360.9 385.612L1349.45 370.781L1346.48 370.987L1340.3 376.923V381.873L1343.06 384.646L1343.97 397.71L1336.88 405.228L1332.76 403.051L1329.55 409.193L1328.85 414.923L1331.37 418.292L1329.76 420.86L1324.49 417.101H1320.83L1317.62 418.682L1315.11 419.278Z" fill="white"/>
<path d="M1334.82 329.844L1331.15 332.617L1333 338.553L1336.21 341.326L1335.97 350.426L1331.85 351.802L1328.64 357.944L1338.03 369.015L1344.2 367.228L1345.35 364.455L1338.72 359.32L1342.84 354.76L1347.2 355.355L1350.62 358.519L1350.86 351.987L1360.25 345.455L1365.52 344.263L1361.16 337.937L1359.1 335.164L1355.68 337.136L1352.71 340.299L1346.29 339.108L1339.65 335.349L1334.82 329.844Z" fill="white"/>
<path d="M1369.38 323.702L1362.96 331.425L1363.41 335.184L1366.62 333.993L1374.17 325.879L1369.38 323.702Z" fill="white"/>
<path d="M1377.85 312.425L1375.55 317.766L1375.79 321.319L1379.7 319.142L1383.36 312.815V310.453L1377.85 312.425Z" fill="white"/>
<path d="M1391.36 265.325L1388.39 268.488L1388.63 273.439L1391.38 273.233L1395.96 266.311L1391.36 265.325Z" fill="white"/>
<path d="M1385.88 277.403V286.112L1389.09 287.098L1391.38 283.935V277.218L1385.88 277.403Z" fill="white"/>
<path d="M1292.21 245.935L1291.99 258.608L1310.53 283.154L1317.16 304.517L1328.85 323.517L1333.43 324.893L1337.33 322.12L1339.15 317.56L1322.43 301.929L1322.89 293.815L1326.55 292.439L1327.46 287.694L1294.72 247.927L1292.21 245.935Z" fill="white"/>
<path d="M1421.37 206.558L1416.8 206.948L1419.55 210.317L1425.27 213.686L1426.88 212.104L1421.37 206.558Z" fill="white"/>
<path d="M1430.28 208.941L1430.97 212.31L1438.06 214.097L1438.76 211.714L1430.28 208.941Z" fill="white"/>
<path d="M1469.2 221.861L1472.19 226.462L1477.17 226.174L1478.18 223.011L1469.2 221.861Z" fill="white"/>
<path d="M870.979 1020.38L870.62 1029.2L884.846 1032.03L888.127 1024.78L883.026 1026.03L876.464 1027.29L874.643 1020.67L870.979 1020.38Z" fill="white"/>
<path d="M847.629 813.681L843.988 817.769L844.707 822.185L852.371 816.824L847.629 813.681Z" fill="white"/>
<path d="M834.145 820.625L828.684 820.933L828.325 825.02L831.965 825.657L837.426 823.459L834.145 820.625Z" fill="white"/>
<path d="M798.029 760.132L792.927 770.526L784.186 783.754L768.882 784.699L762.319 791.313L763.421 811.484L753.937 820.933L755.039 836.995L763.062 844.863L772.546 843.918L782.03 837.92L779.851 828.471L801.717 796.017L797.334 791.929L801.717 784.062L806.459 785.315L807.92 782.172L803.537 766.109L800.975 759.495L798.029 760.132Z" fill="white"/>
<path d="M763.038 756.661L764.139 759.803L768.881 760.44L770.702 756.353L763.038 756.661Z" fill="white"/>
<path d="M769.959 762.966L771.78 766.438H774.701L776.162 762.021L769.959 762.966Z" fill="white"/>
<path d="M822.098 730.183L820.637 732.71L824.637 735.544L827.559 732.71L822.098 730.183Z" fill="white"/>
<path d="M842.526 711.286L838.143 713.812L841.424 718.228H845.807L842.526 711.286Z" fill="white"/>
<path d="M844.346 722.316L841.424 725.151L843.604 727.985L847.603 728.622L847.963 722.624L844.346 722.316Z" fill="white"/>
<path d="M951.546 652.992L952.265 658.353L956.264 659.606L956.983 654.881L951.546 652.992Z" fill="white"/>
<path d="M956.648 664.33L956.288 670.944L959.21 672.197L961.773 667.78L956.648 664.33Z" fill="white"/>
<path d="M957.391 677.25L954.828 679.448L957.75 681.646L961.39 679.448L957.391 677.25Z" fill="white"/>
<path d="M271.945 439.901L268.688 442.715L274.532 445.53L275.179 441.606L271.945 439.901Z" fill="white"/>
<path d="M289.501 438.217L285.597 440.456L288.854 442.695L294.051 441.565L289.501 438.217Z" fill="white"/>
<path d="M292.088 446.084L290.148 450.582L292.735 453.396L295.992 451.158L292.088 446.084Z" fill="white"/>
<path d="M307.679 455.06L306.386 457.874L308.326 459.558L313.523 456.744L307.679 455.06Z" fill="white"/>
<path d="M357.064 479.75L354.477 482.564L357.064 485.378L360.968 483.694L357.064 479.75Z" fill="white"/>
<path d="M374.883 515.307L370.692 517.381L372.632 519.066L374.883 515.307Z" fill="white"/>
<path d="M360.321 515.697L355.124 516.827L357.71 520.195H361.614L360.321 515.697Z" fill="white"/>
<path d="M347.963 512.328L344.706 515.142L349.256 518.511L351.843 513.458L347.963 512.328Z" fill="white"/>
<path d="M307.679 590.917L303.129 593.156L306.386 595.395L310.29 593.711L307.679 590.917Z" fill="white"/>
<path d="M318.864 595.436L315.895 597.696L318.002 601.044L323.079 599.092L318.864 595.436Z" fill="white"/>
<path d="M312.374 601.783L308.566 603.734L312.661 608.438L315.894 606.98L312.374 601.783Z" fill="white"/>
<path d="M41.9318 576.189L38.3394 577.463L39.6087 580.195L43.8239 577.833L42.9856 577.093L41.9318 576.189Z" fill="white"/>
<path d="M47.8471 579.291L45.7395 583.132L48.2782 586.049L51.4396 583.687L47.8471 579.291Z" fill="white"/>
<path d="M55.0314 589.869L52.4927 591.882L54.3847 595.169L57.9771 594.265L55.0314 589.869Z" fill="white"/>
<path d="M54.8165 598.086L53.116 601.188L55.8703 603.735L59.4627 602.091L54.8165 598.086Z" fill="white"/>
<path d="M55.032 605.933L52.0862 607.761L54.4093 611.417L58.2173 609.589L55.032 605.933Z" fill="white"/>
<path d="M51.4393 613.039L48.6851 615.401L49.7388 616.86H53.1157L54.1695 614.477L51.4393 613.039Z" fill="white"/>
<path d="M55.4389 620.167L52.9002 622.18L50.146 622.549V625.466L55.2234 629.471L57.3309 626.555L58.6003 623.268L58.1692 620.536L55.4389 620.167Z" fill="white"/>
<path d="M28.6393 571.444L22.3166 569.616L17.2393 572.348L19.7779 574.895L28.4238 575.984L28.6393 571.444Z" fill="white"/>
<path d="M-19.6915 559.777L-23.6912 563.289L-19.1167 564.891L-18.4461 569.801L-28.5769 570.561L-27.5471 575.285L-24.6012 575.47L-22.9008 573.293L-11.0696 573.621L-8.93804 577.134L-6.20776 574.381L1.76751 572.533L8.78486 573.806L9.59915 570.17L-3.04636 563.084L-11.2372 560.455L-19.6915 559.777Z" fill="white"/>
<path d="M9.62328 570.17L-3.04614 563.063L-9.0336 561.317L-11.0454 573.642L-8.93781 577.113L-6.18356 574.381L1.83958 572.553L8.80899 573.827L9.62328 570.17Z" fill="white"/>
<path d="M117.015 1037.97L110.716 1037.37L104.441 1040.99L108.992 1045.22L117.015 1037.97Z" fill="white"/>
<path d="M123.289 1035.25L121.206 1040.99L115.266 1045.5L115.625 1047L125.756 1043.68L129.947 1039.16L123.289 1035.25Z" fill="white"/>
<path d="M352.705 235.089L348.011 232.809L341.688 236.239L336.251 240.553L336.395 242.956L343.436 243.716L343.005 248.03L340.514 250.187L341.113 251.583L348.154 251.974V258.957L358.285 260.478L364.297 263.394L371.05 263.641L382.642 258.69L391.599 248.543L391.743 241.683L386.306 237.739L381.756 234.432L379.696 235.705L376.607 239.136L373.086 238.745L369.565 235.438L365.015 235.808L358.405 240.512L354.429 244.189L352.226 242.545L352.082 238.478L354.285 237.205L352.705 235.089Z" fill="white"/>
<path d="M548.854 104.963L544.902 101.554L536.136 105.21H520.042L517.503 113.262L526.532 120.102L530.484 119.609L536.136 111.311L540.926 114.248L537.525 120.102L535.825 128.647L539.777 134.008L548.255 121.807L559.272 110.325L555.033 107.161L548.854 104.963Z" fill="white"/>
<path d="M553.644 90.3177L546.579 95.9254L550.818 101.533H558.434L561.548 105.189L570.864 109.338L581.594 103.977L588.946 98.6162L586.407 94.2205L579.055 90.5642L573.69 94.7135L570.026 90.8107L567.2 91.0572L563.535 97.8973L558.171 93.2551L557.596 90.0918L553.644 90.3177Z" fill="white"/>
<path d="M569.739 115.459L564.086 119.855L559.296 123.018L561.548 126.428L566.074 127.64L573.427 124.703L576.828 121.047L573.714 116.651L569.739 115.459Z" fill="white"/>
<path d="M691.5 73.8032L695.619 75.2205L692.721 79.493V85.5525L686.542 88.7569H679.956L676.244 84.8336L676.651 80.5611L679.549 77.3568H685.321L691.5 73.8032Z" fill="white"/>
<path d="M707.161 69.8798V74.1523L711.281 77.0075L717.052 76.6583L722.01 72.735V69.8798H717.484L713.771 70.9479L710.873 68.0928L707.161 69.8798Z" fill="white"/>
<path d="M730.681 70.2495L733.579 75.5901L739.351 75.9392L743.47 74.5219L741.411 69.5305L736.046 68.4624L730.681 70.2495Z" fill="white"/>
<path d="M754.176 63.1218L749.649 62.4028L745.53 65.9769L747.589 69.1813L748.835 74.1727L754.2 70.6191L755.445 66.6959L754.176 63.1218Z" fill="white"/>
<path d="M779.323 100.896L778.077 105.888L768.593 113.016L748.379 116.939L731.878 140.458L728.98 147.236L745.481 150.811L747.948 142.266L752.906 129.078L765.695 123.368L776.425 116.24L784.256 113.385H788.376V103.772L779.323 100.896Z" fill="white"/>
<path d="M726.132 152.926L737.268 153.994L740.98 165.045L750.465 173.59L747.16 179.301H741.388L736.023 173.96L724.072 173.611L719.114 167.9V163.977L726.539 162.19L726.132 152.926Z" fill="white"/>
<path d="M900.174 31.4069L894.81 28.5518H888.631L887.385 31.7561L880.799 34.9605L875.841 36.3778L875.027 40.6503L886.571 41.3692L900.174 31.4069Z" fill="white"/>
<path d="M912.939 32.4746L910.041 37.8152L904.269 37.466L895.192 43.1763L892.726 50.304H898.497L901.803 45.6618L909.634 50.6532L917.059 47.798L922.423 43.8747L920.364 37.8152L917.466 33.5427L912.939 32.4746Z" fill="white"/>
<path d="M924.915 36.3979L927.813 46.3808L932.339 55.6447L937.297 48.1678L946.781 46.3808V41.0402L940.602 37.1169L924.915 36.3979Z" fill="white"/>
<path d="M1151.19 20.4174L1157.64 25.0596L1162.21 23.4369L1163.55 16.9254L1154.16 11.3589L1147.98 14.8508L1132.94 16.0216V21.8347L1117.09 22.0606V31.571L1135.63 43.4025L1140.46 40.383L1139.39 32.0229L1151.22 29.4758L1148.8 25.532L1144.51 21.8141L1151.19 20.4174Z" fill="white"/>
<path d="M1168.39 14.8511L1172.67 21.8144L1189.34 20.1917L1193.92 15.0771L1192.84 10.6608L1188.27 9.03809L1183.98 11.8316L1171.62 14.1527L1168.39 14.8511Z" fill="white"/>
<path d="M1167.31 42.0059L1158.98 40.1572L1154.16 44.5735L1152.01 50.6125L1163.29 49.6881L1171.89 45.9703L1167.31 42.0059Z" fill="white"/>
<path d="M1383.31 1.84867L1376.32 0L1368.27 2.54706L1364.25 7.66171L1369.35 13.4747L1382.79 8.36009L1385.47 5.81304L1383.31 1.84867Z" fill="white"/>
<path d="M1009.36 626.884L1009.96 632.471L1010.56 636.538L1007.04 637.052L1008.81 646.193L1014.1 648.74L1022.32 644.673L1019.97 635.039L1020.57 631.485L1012.93 625.405L1009.36 626.884Z" fill="white"/>
<path d="M1371.94 691.156L1361.95 692.121L1355.53 696.147L1358.19 700.748L1369.06 702.474V704.199L1362.19 708.985L1365.52 718.947L1368.85 719.132L1371.72 709.355H1377.04L1379.27 718.927L1405.2 737.331L1405.87 751.71L1414.74 759.947L1418.74 759.762L1419.62 708.985L1404.56 699.988L1390.36 708.225L1385.25 710.916L1376.82 706.315L1376.61 691.751L1371.94 691.156Z" fill="white"/>
<path d="M-6.20769 42.1497L-7.26149 45.3541L-9.91992 48.5584V53.139L0.162978 51.7628L10.7727 59.5683H14.485V51.7628L3.87517 41.6567L-6.20769 42.1497Z" fill="white"/>
<path d="M20.8792 51.3316L25.1182 55.4603L21.406 60.9652L24.0645 66.922L35.752 61.4171V57.2884L28.8545 50.4072L20.8792 51.3316Z" fill="white"/>
<path d="M36.2798 40.7731L36.8067 48.1062H51.1527L54.8649 50.8586L54.338 54.063L41.5967 55.4392L50.6258 65.9972L62.8402 67.8253L79.8207 61.396L55.3918 29.7222L47.9673 33.8509L48.4942 39.3558L39.9921 36.6033L36.2798 40.7731Z" fill="white"/>
<path d="M11.3237 108.702L0.163086 116.507L2.82148 126.141H9.71905L12.9044 121.088L17.6944 125.216L22.4844 124.765L35.2256 115.583L11.3237 108.702Z" fill="white"/>
<path d="M10.2448 93.543L7.58643 98.1236L19.274 101.8L22.4593 97.6717L10.2448 93.543Z" fill="white"/>
<path d="M3.34776 76.1035L-8.33974 77.4798L-15.2373 82.9847L-2.49601 83.4366L-6.2082 91.694L-3.54981 95.3708L0.162461 94.9189L9.19152 82.5328L3.34776 76.1035Z" fill="white"/>
<path d="M23.5379 72.8989L17.1672 74.7271L18.221 82.0601L28.8308 88.0169L29.3577 92.5975L26.1723 95.35L27.777 104.532L68.6594 115.993L79.82 119.198L90.9806 110.94L77.7124 101.759L65.498 104.511L48.5176 103.135L42.1469 97.63L40.5422 82.4915L29.9325 77.9109L23.5379 72.8989Z" fill="white"/>
<path d="M56.972 120.636L45.2845 119.711L31.4893 124.292L24.0649 133.001L26.1964 156.87L49.0206 157.794L70.791 166.976L86.1908 182.114L97.8783 181.662L94.693 195.877L84.0832 211.015L72.3957 215.596L63.8935 214.22L59.6544 211.015L53.2837 218.348L55.9422 225.681L64.9712 226.133L76.1319 221.553L85.6878 242.668L109.59 255.979L126.043 238.088L112.248 218.821L120.224 211.015L131.384 227.078L151.55 211.939L147.838 205.058L134.043 208.735L124.487 186.243L133.516 173.405L115.457 156.89L105.375 162.847L95.8186 144.956L75.6528 147.257L70.336 125.689L53.8825 135.322L52.2779 147.257H43.2487L44.3025 136.699L56.972 120.636Z" fill="white"/>
<path d="M80.8734 128.893L76.6343 132.57L80.3465 137.623L97.8778 139.451L86.7171 129.345L80.8734 128.893Z" fill="white"/>
<path d="M63.8938 77.028V81.1567L52.2063 83.4573L55.3916 88.0379L68.6598 92.6185L83.5327 93.9947L94.1424 100.424L104.752 95.371L97.3278 88.9417H106.884L112.728 83.4368L127.073 81.6086V78.8562L119.098 74.2756L120.152 69.2225L142.449 72.4269L175.38 61.417L163.166 58.2127L166.351 54.5359H191.834L196.073 50.8591L144.557 35.2481L132.342 31.5713L119.074 39.8287L104.201 29.2707L96.226 28.8188L94.6214 37.5487L84.5386 29.7432L72.851 32.9475L74.9825 38.0006L92.5138 41.2049L91.46 48.538L101.016 53.591L124.391 48.538L124.918 55.4191L105.806 63.2246L94.1185 55.4191L83.5087 56.3435L94.1185 69.202L88.8017 71.5026L80.8263 65.5457L74.9825 68.7501L80.2994 77.4594H89.3286L87.197 85.7168L79.7725 84.7924L70.2166 76.0626L63.8938 77.028Z" fill="white"/>
<path d="M16.5682 203.333L6.43742 214.261L5.8147 226.298L14.6762 221.922H25.4296L33.0218 227.941L39.9912 223.011L16.5682 203.333Z" fill="white"/>
<path d="M139.935 345.475L114.62 366.262L117.159 371.192L148.15 381.031L152.58 374.479L150.042 363.551L139.911 364.64L134.211 359.176L143.695 350.98L139.935 345.475Z" fill="white"/>
<path d="M-241.587 94.0767L-236.821 100.259L-234.426 108.517L-222.499 111.084L-214.14 103.361L-206.979 106.463L-186.694 108.003L-172.372 102.848L-169.977 119.855H-161.618V112.646L-153.26 113.159L-132.376 134.295L-118.652 141.505L-125.813 151.303L-122.82 153.871L-96.0198 158.513L-95.4211 168.825L-88.2601 169.852L-86.4638 154.384L-75.1356 151.817L-66.7771 162.642L-48.8866 169.852L-39.9293 171.392L-33.9658 165.209L-33.367 155.411L-22.6375 149.742L-19.069 158L-28.625 172.44L-27.4275 179.65L-22.0627 172.44L-11.3332 164.182L-10.7344 153.357L-16.698 145.1L-14.9017 138.404L-0.579692 132.221L5.98254 136.35L7.18003 172.44L17.3108 164.716L23.2743 167.818L14.9159 180.184L25.6453 182.238L41.1649 161.615L54.2894 173.467L48.9246 194.603L35.8001 200.786L23.2743 195.63L0.6178 199.759L3.01278 206.455L-2.95078 214.713L-21.44 218.328L-42.3243 232.254L-60.8136 253.391L-63.2086 260.087L-50.6828 264.216L-45.9168 274.527L-28.625 289.481L-1.17844 299.792L-7.142 323.497L-7.74071 330.193L-0.579692 334.322L8.97627 323.497L10.1738 302.874L25.0945 302.36L32.2555 290.508L33.453 272.473L52.541 240.512L76.3951 247.722L88.9209 262.675L83.5561 277.629L93.1121 282.271L116.367 268.858L122.93 305.462L144.413 327.625L145.011 338.964L121.157 344.119L109.829 354.431L85.975 349.789L74.048 349.275L53.1638 363.202L65.6895 360.634L81.209 358.067L84.2027 361.168L80.0355 372.507L80.6342 382.818L87.7952 386.947L94.9562 385.406L98.5487 380.764H103.315L95.5549 393.13L80.6342 393.643L74.0719 401.901H65.7135L63.3185 395.718L75.2455 385.406L60.9235 389.535L60.2769 372.014L56.1575 369.96L43.6317 374.602L42.4342 383.373H13.7902L-10.6626 397.813L-43.4739 407.097L-47.0424 402.969L-30.517 381.812L-39.9054 374.068L-45.8689 364.249L-58.0114 356.3L-71.0402 355.376L-94.3913 341.346L-263.741 317.478L-266.543 307.639L-282.062 295.274V284.962L-279.667 275.678L-280.865 270.522L-286.828 265.366L-288.026 257.109L-272.506 247.824L-282.062 203.497L-295.187 202.984L-307.114 189.571L-241.587 94.0767Z" fill="white"/>
<path d="M-264.243 319.368L-266.638 327.625L-274.997 322.983H-279.164L-281.559 331.754L-310.802 387.953L-303.042 436.923L-293.486 441.051L-291.69 454.464H-272.003L-252.915 466.83L-215.338 469.932L-211.17 486.426L-205.207 490.041L-196.848 482.831L-190.286 485.399L-184.323 509.103L-174.192 514.772L-165.833 501.359L-140.183 485.378L-123.49 492.074L-109.168 493.102L-108.569 485.378L-78.7517 485.892L-72.7882 491.561L-71.5908 504.44L-75.1593 511.65L-70.992 524.015H-62.0348L-53.0775 512.163L-56.646 506.494L-60.2146 494.129L-54.8498 480.202L-30.397 462.167L-11.9078 457.525L-14.3027 442.571L11.3475 418.847L36.9979 415.231L32.8305 402.886L57.8821 390.521V374.027L55.4871 373L46.5298 375.567L45.3324 385.673L15.5627 385.981L-7.7644 399.271L-44.3837 409.542L-50.2275 403.4L-33.6063 381.832L-41.8211 375.115L-47.4014 365.995L-58.9692 358.025L-71.5428 357.122L-95.3011 343.216L-264.243 319.368Z" fill="white"/>
<path d="M-12.8414 609.897L-17.7751 609.465L-50.3947 632.533L-53.8435 640.646L-58.2982 641.078L-56.3103 659.01L-67.6865 682.94L-55.3284 691.916L-39.4976 692.779L-28.6243 706.459L-12.8174 706.89L-13.3204 717.14H-7.40478L-0.986241 698.345L-6.92575 691.937L-5.44088 679.982L6.91725 679.119L5.4323 651.348L-22.2537 643.666L-28.6723 628.712L-12.8414 609.897Z" fill="white"/>
<path d="M-20.6734 622.509L-19.6197 627.829L-11.836 629.944L-10.0637 620.146L-1.84887 612.854L6.36591 621.112L25.2624 625.528L41.2608 622.652L52.158 634.176L60.3728 638.592L51.3677 650.362L54.3853 659.277L49.2361 664.741L43.8953 668.582L32.3275 663.59L29.6691 665.891V672.998L38.1234 676.449L31.8965 682.221L25.6695 687.993L17.4547 687.417L9.19197 679.633L7.44368 650.341L-20.7693 642.084L-25.8945 629.205L-20.6734 622.509Z" fill="white"/>
<path d="M62.1691 639.373L79.4609 652.806L72.5873 659.626L72.0365 663.672L81.0656 671.663L80.8501 679.345L65.139 684.48L55.7266 673.573L57.7385 660.468L53.7148 650.711L62.1691 639.373Z" fill="white"/>
<path d="M81.5196 653.771L86.4054 657.612L93.9735 653.586L100.871 653.771L99.9849 656.072L97.087 661.248L96.6319 674.127L82.8608 678.934L83.5314 670.676L74.646 663.569L75.101 659.913L81.5196 653.771Z" fill="white"/>
<path d="M103.075 655.127L117.086 662.624L109.757 675.113L107.099 677.989L99.3149 674.148L99.5305 660.694L103.075 655.127Z" fill="white"/>
<path d="M-81.5778 712.066L-86.2241 716.092L-85.9128 722.521L-45.3417 785.951L-3.21396 809.244L3.3004 799.878L4.85713 779.275L1.45629 766.437L-10.0157 749.84L-16.8414 751.71L-19.9309 754.647L-33.5584 741.254L-30.1575 725.459L-14.3506 716.626L-15.596 708.328L-31.6903 707.793L-40.0488 695.757L-44.6951 694.421L-44.3837 701.652L-65.1243 722.788L-80.6199 719.584L-81.5778 712.066Z" fill="white"/>
<path d="M-0.914795 759.864L18.796 752.49L25.3103 753.024L29.6452 768.553L59.6784 777.119L64.6359 790.244L77.018 791.579L82.287 802.815L78.5747 812.983L58.4329 814.318L51.0085 830.648L35.2016 830.381L30.244 829.58L21.1191 837.18L16.6165 836.81L1.12096 806.019L5.408 800.514L6.91685 778.741L3.08486 765.78L-0.914795 759.864Z" fill="white"/>
<path d="M78.2391 814.75L83.508 819.679L82.8853 830.114L98.0695 829.313L109.541 841.904L108.607 853.14L101.183 862.774L85.9988 863.308L85.3761 857.947L89.711 849.114L74.8382 841.083H62.4561L53.1636 832.517L59.9174 815.961L78.2391 814.75Z" fill="white"/>
<path d="M98.8364 881.343L93.9268 885.841L95.9625 910.038L111.386 913.879L131.001 897.015L98.8364 881.343Z" fill="white"/>
<path d="M111.074 853.14L115.721 856.879L98.0697 879.371L91.8667 885.266L94.0222 910.963L107.65 925.156L96.2017 942.287L87.5318 945.492H77.6166L80.3948 958.864L64.8992 963.424L68.6114 974.66L59.3188 1000.09L70.7908 1008.12L64.5878 1021.23L54.0499 1035.42L59.6302 1045.32L46.0027 1047.19L34.8422 1035.42L32.974 998.754L15.6344 936.474L20.8794 914.701L9.71875 886.868L17.1432 850.737L23.9689 843.774L22.2924 838.495L31.0581 831.634L50.6011 832.785L61.5223 842.788L74.1438 842.973L87.0768 849.751L83.2687 857.392L84.1788 865.116L102.5 864.376L111.074 853.14Z" fill="white"/>
<path d="M62.1451 1050.13L51.9185 1069.39L69.5696 1071L69.8808 1058.16L62.1451 1050.13Z" fill="white"/>
<path d="M71.4375 1059.76L72.0601 1071.53L82.5981 1070.73L91.5793 1065.63L76.3951 1062.96L71.4375 1059.76Z" fill="white"/>
<path d="M58.6724 1047.11L50.9845 1054.4L50.0504 1062.96L35.1776 1055.73L19.3707 1036.2L14.7244 1029.24L21.2388 1022.01L20.6161 1012.91L13.1917 1010.24L7.30004 1006.5L8.5454 1001.4L16.2812 999.535L17.838 970.1L5.76721 964.205L-2.1123 810.991L-0.0765537 807.951L15.3471 838.454L20.2808 838.536L21.8855 843.405L15.3232 850.224L7.77899 886.93L18.5085 915.195L13.5509 936.598L31.0343 999.535L32.8784 1036.34L45.4042 1048.77L58.6724 1047.11Z" fill="white"/>
<path d="M7.63618 970.1L4.54663 974.105L6.10343 981.068L9.19291 981.335L10.7496 972.503L7.63618 970.1Z" fill="white"/>
<path d="M132.079 895.557L147.048 870.867L147.598 850.121L175.524 834.674H191.163L203.449 816.824L205.677 782.562L200.647 773.401L230.249 750.231L231.375 724.658L191.163 707.773L142.593 694.75L119.697 692.82L125.852 681.728L124.175 664.843L119.17 663.426L111.769 676.038L107.89 680.208L97.9264 676.428L64.4206 686.555L53.2599 674.497L55.0562 661.906L44.5182 671.108L32.8787 665.726L31.7051 667.144L31.729 671.519L41.764 676.14L26.6996 689.759L17.1915 689.677L7.56365 681.276L-3.3335 681.563L-4.67468 691.546L1.57619 698.058L-5.80033 718.331L-14.4223 718.906L-28.1456 726.342L-31.4985 740.947L-19.5955 751.874L-17.416 749.759L-9.05754 747.828L-1.92047 758.139L18.5087 750.621L26.4361 751.012L31.8967 767.588L61.0436 775.517L66.0731 788.745L78.4791 790.019L84.3947 802.651L80.3951 813.887L85.6162 819.762L84.8498 828.512L98.8365 827.382L111.65 841.268L110.644 851.025L118.236 856.53L100.034 880.172L132.079 895.557Z" fill="white"/>
<path d="M1338.5 143.929L1342.72 156.418L1351.15 158.493L1359.58 147.051L1354.77 139.246L1356.56 132.488H1369.21L1366.19 137.685L1367.39 156.418L1349.33 194.911L1351.13 203.23L1350.53 217.28L1384.22 259.409L1390.83 260.971L1391.43 226.647L1398.04 221.45L1390.81 207.934L1396.82 202.203L1383.58 187.127L1376.34 187.64L1373.95 162.683L1392.61 158.513L1393.8 151.221L1403.43 149.147L1408.84 153.316L1415.45 130.434L1426.88 113.796L1435.91 109.626L1443.74 110.14V102.334L1431.09 100.26L1413.63 87.7708L1422.06 79.4518L1414.83 65.4019L1420.84 60.2051L1428.08 68.5241L1446.13 74.255L1465.99 75.8161L1468.41 68.5446L1458.18 59.7121L1469.61 46.1963L1443.72 38.3908L1437.11 49.832L1428.67 40.4654L1381.13 26.4155L1335.99 33.1734L1329.38 36.2956V39.4178L1339.01 43.5876L1337.81 53.4677L1320.35 47.2233L1281.84 60.2256L1275.23 48.2709H1248.74L1236.69 59.1986L1193.97 50.8796L1154.86 57.6375L1150.04 68.0311L1156.05 69.5922L1155.45 77.3977L1117.54 81.0334L1119.96 91.4271L1085.04 86.2303L1093.47 72.7144L1057.96 71.1533L1060.97 85.2032L1049.55 89.8865L1039.92 82.081L1000.81 87.8119L985.77 99.7666L985.172 107.038L975.544 107.552L974.346 99.2326L1005.05 76.3501V60.7392L985.196 56.0559L959.306 63.3273L948.48 53.9607H943.667L937.655 64.3543L942.469 69.0376L908.149 85.1621L878.667 104.409L860.608 125.73V134.563L879.864 141.321L870.236 147.565L849.783 141.321L841.353 147.565L828.707 135.076L826.288 139.76L840.131 177.205L843.748 178.253L853.376 174.083L858.19 177.205V183.963L849.161 180.841L843.748 184.477L847.364 191.235L844.347 208.92L825.69 210.481L824.492 204.751L835.317 199.02L837.736 183.409L825.69 169.893L821.475 146.497L802.219 143.888L800.423 152.207L804.039 156.377L796.207 162.108L799.225 177.719L810.649 181.889L813.068 193.33L801.62 187.085L772.138 182.402L768.521 190.721L745.05 197.993L741.434 192.796L710.73 207.359L710.132 217.239L698.085 218.8L701.701 211.529V204.258L689.654 200.622L681.823 203.23L688.433 214.158L693.247 221.43V227.16L684.218 225.599L682.422 224.038L673.393 232.357L678.207 239.629L657.753 239.115L664.363 246.407L662.567 249.529H651.742L643.91 244.846L642.114 231.844L629.469 227.674V222.477L655.957 227.16L670.399 228.208L676.41 220.403L670.998 212.084L632.486 199.081L619.194 201.916L614.644 205.264L616.057 212.967L621.709 213.809L620.392 225.928L637.827 261.053L625.229 278.184L624.367 282.045L630.762 285.907L624.99 289.173L621.158 289.235L621.876 304.332L627.169 310.761L627.241 317.006L634.019 317.54L644.389 320.929L655.358 333.87L655.478 337.28L651.91 342.517L660.1 342.127L668.076 344.099L678.853 357.184L705.39 359.258L704.24 374.828L695.091 381.545L696.983 384.174L687.954 392.493L685.559 400.299L690.972 407.057L708.431 412.253L715.664 408.618L762.007 423.695L763.803 419.525L754.175 411.719V401.839L748.164 400.278L749.361 391.959L758.989 382.079L741.721 370.987L742.919 355.561L761.384 345.147L783.059 346.194L786.675 351.925L808.949 352.973L825.211 345.167L816.78 337.362L818.577 322.798L860.704 305.113L893.108 317.643L903.934 309.324L935.835 335.328L959.905 333.254L968.335 340.525L991.207 342.6L1006.25 324.914L1025.5 332.206L1035.73 333.767L1045.96 325.962L1036.93 320.765L1044.76 310.371L1067.03 316.616L1071.85 324.935L1081.47 325.448L1087.49 321.812L1103.75 321.299L1105.54 324.935L1124.2 325.982L1136.85 314.541L1162.74 317.15L1170.57 314.541L1172.96 302.052L1165.13 286.975L1172.96 281.244H1197.63L1221.1 305.174L1251.18 319.738H1260.21L1261.41 313.493L1272.23 307.762L1273.43 341.573L1263.8 342.086V350.405L1269.22 356.136L1268.21 363.572L1272.21 364.989L1274.63 359.792L1278.25 360.84L1280.64 362.914L1291.47 360.84L1302.29 333.788L1303.49 299.978L1289.65 272.925L1272.19 254.726L1263.76 255.774V261.505L1243.3 254.747L1251.13 240.183L1257.74 201.69L1285.43 194.418L1298.68 187.147H1313.12L1309.5 191.317L1313.12 196.514L1325.76 185.072L1333 185.586L1331.8 178.828L1320.35 176.753L1328.18 152.31L1338.5 143.929Z" fill="white"/>
<path d="M985.076 343.462L976.789 361.333L965.365 360.819L953.318 383.434L963.545 394.609L942.469 419.566L931.644 418.005L924.411 425.81L926.207 430.493L934.638 431.007L938.853 439.326L947.283 440.887L973.173 469.5V484.064L985.818 490.822L999.661 488.747L1017.12 497.58L1038.2 502.776L1048.42 501.729L1059.87 500.681L1083.94 487.165L1091.77 488.213L1094.77 494.314L1101.4 496.018L1110.43 507.46L1104.42 518.901L1108.03 526.706L1118.26 529.829L1120.06 539.195L1132.1 540.243L1133.9 535.559L1151.36 527.754L1162.18 528.267L1174.83 540.222L1183.26 537.1L1188.67 537.614L1191.09 543.344L1195.31 543.858L1201.32 536.586L1225.39 528.781L1247.06 506.412L1254.3 485.091L1253.7 471.041L1244.67 469.48L1250.08 464.283L1248.88 455.964L1226.01 436.204V426.324L1232.62 419.052L1239.23 416.444L1239.83 410.713H1222.97L1219.95 418.518L1212.12 416.957L1202.49 408.124L1208.5 394.609L1216.93 386.803L1224.77 387.317L1223.57 399.271L1227.78 402.394L1238.01 393.561L1241.63 393.048L1240.43 386.29L1250.06 376.41L1257.29 376.923L1261.5 365.482L1266.44 363.243L1266.94 356.115L1262.15 351.802L1261.74 340.545L1270.97 340.032L1270.37 311.008L1263.9 314.335L1261.48 321.771L1250.68 321.751L1219.38 306.653L1196.77 283.278L1173.82 283.072L1167.98 287.427L1175.41 302.011L1172.82 315.691L1163.57 318.978L1158.38 318.628L1157.99 332.165L1163.41 333.212L1173.03 329.577L1185.68 334.773V339.97L1176.65 340.484L1169.42 354L1162.81 354.513L1139.34 381.031L1114.67 390.398L1097.81 391.445L1086.38 384.687L1070.12 391.979L1052.66 387.296L1048.45 377.416L1018.96 375.855L1003.33 354.02H996.715L991.399 343.893L985.076 343.462Z" fill="white"/>
<path d="M993.219 343.668L1007.16 327.81L1023.9 334.445L1035.27 337.053L1049.21 326.085L1039.75 320.107L1045.98 312.569L1064.57 318.197L1071.01 327.255L1082.65 327.523L1088.73 323.64L1101.26 323.209L1103.99 327.194L1124.8 328.098L1137.97 316.574L1156.2 318.218L1155.14 333.911L1163.12 335.472L1172.91 331.651L1183.28 336.047L1183.05 338.265L1175.52 338.45L1167.69 352.541L1161.61 353.055L1137.95 379.573L1113.78 388.714L1098.67 389.72L1086.12 382.777L1070.07 390.131L1054.27 385.92L1049.79 376.081L1019.85 374.273L1004.52 351.987L997.075 351.576L993.219 343.668Z" fill="white"/>
<path d="M1243.45 393.171L1247.85 394.753L1249.2 407.981L1257.94 408.413L1266.18 400.135L1263.33 397.957L1263.66 389.084L1271.23 381.237L1267.37 375.28L1269.89 372.815L1271.28 366.653L1266.89 364.948L1263.16 366.571L1258.54 378.608L1251.06 378.053L1242.42 386.804L1243.45 393.171Z" fill="white"/>
<path d="M1267.54 401.244L1282.34 411.596L1284.86 421.62L1284.35 427.002L1277.12 433.986L1270.89 434.273L1263.83 421.189L1261.15 414.944L1264 413.055L1263.33 410.446L1259.81 409.09L1267.54 401.244Z" fill="white"/>
<path d="M760.643 381.565L770.462 377.971L781.431 377.642L782.197 392.02H775.779L770.869 398.881L777.288 408.022L786.748 412.602L787.61 417.84L791.083 416.854L794.292 413.588L799.585 414.574L802.243 419.155H809.045V413.28L804.878 402.825L802.986 394.342L815.08 389.761L831.343 392.041L841.545 400.853L864.609 398.902L877.47 414.574L892.582 415.232L896.75 409.357L902.042 408.371L902.809 401.839L910.736 401.51L914.903 405.762L919.071 397.279L954.972 401.531L961.007 394.67L950.804 383.886L964.408 358.416L975.377 359.073L982.945 343.4L967.833 342.086L959.139 334.897L935.189 337.279L904.342 311.706L893.468 319.984L860.489 307.146L820.038 324.133L818.913 336.211L828.373 345.68L809.931 354.616L786.005 354.164L781 347.858L762.247 346.975L744.476 356.773L744.093 370.165L760.643 381.565Z" fill="white"/>
<path d="M801.74 420.531L800.255 425.933H790.316V433.246L800.997 439.285L797.692 447.563V451.383L802.123 452.02L808.015 445.344L821.283 442.797L849.64 452.02L849.999 458.696L865.83 459.969L883.505 444.05L881.301 438.956L869.518 436.738L836.371 418.271L834.887 411.596H822.361L816.828 420.51H811.296L801.74 420.531Z" fill="white"/>
<path d="M885.732 444.091L893.109 444.42V433.595L886.115 430.103L897.899 417.368H902.689L907.479 422.154L920.004 418.025L902.689 412.931L902.018 409.85L897.899 410.713L893.851 416.752L876.392 416.259L863.579 400.709L841.066 402.62L830.336 393.5L815.487 391.343L804.71 395.102L810.961 412.931L811.033 418.929L815.583 419.011L821.163 409.891L836.012 410.055L838.216 417.06L870.045 435.177L882.355 437.601L885.732 444.091Z" fill="white"/>
<path d="M888.774 429.261L898.617 418.785H902.329L903.623 421.127L899.072 423.961V426.303L902.066 428.152L916.46 428.891L921.154 427.166L923.286 427.536L924.723 431.479L933.273 432.219L937.56 439.983L936.266 442.325L934.566 442.448L932.866 439.49L929.153 439.244L922.735 439.983L922.304 445.159L915.885 444.79L916.173 438.258L911.478 434.314L904.341 439.367L904.485 442.695L898.21 444.543H894.498L894.785 433.082L888.774 429.261Z" fill="white"/>
<path d="M904.629 403.318L903.887 408.515L904.485 411.719L925.322 417.717L907.024 424.044L904.941 422.565L900.989 424.742L901.18 425.933L903.288 426.755L916.125 427.043L922.64 425.358L930.998 416.32L941.464 417.881L954.086 402.887L920.316 398.943L915.646 408.659L909.754 403.236L904.629 403.318Z" fill="white"/>
<path d="M850.287 460.504L854.095 486.098L863.579 487.885L864.465 492.486L857.663 497.354L870.333 506.125L894.953 498.525L896.917 489.528L912.413 481.229L918.352 462.003L922.783 457.916L918.185 451.055L933.177 443.106L931.261 440.805L924.34 441.175L923.717 446.639L914.425 446.557L914.257 439.265L911.263 436.204L906.234 440.127L906.377 443.722L898.785 446.187L884.775 445.427L866.573 461.777L850.287 460.504Z" fill="white"/>
<path d="M871.865 507.316L878.092 515.245L877.493 519.332L869.207 522.146L868.608 528.802H878.092L881.349 526.501H899.407L915.693 538.784L917.777 532.889H929.919L930.207 525.474L917.777 515.245L920.435 509.617L933.177 508.857L950.349 478.148L940.865 471.76L937.32 461.017L960.408 459.23L946.78 442.592L939.523 440.908L936.554 443.989L934.326 444.133L920.699 451.548L925.153 457.957L920.124 462.558L913.897 482.256L898.497 490.699L896.414 499.921L871.865 507.316Z" fill="white"/>
<path d="M986.465 637.072L997.434 632.471L1003.95 612.259L1003.66 587.446L1040.98 552.896V544.7L1048.66 542.133L1048.38 532.663L1040.09 518.839L1044.83 511.424L1055.2 519.62L1068.52 520.133V524.735L1064.37 528.576L1065.26 530.63L1072.37 530.876L1073.86 537.778H1075.94L1081.28 529.582L1083.94 508.097L1092.83 502.715L1093.11 495.3L1089.57 489.404L1083.94 489.158L1061.91 501.647L1063.3 509.678L1047.82 509.637L1042.36 503.906L1039.39 504.235L1040.4 512.205L1006.94 510.151L986.202 502.222L985.1 492.465L971.281 485.111L971.113 469.973L961.629 460.668L939.835 462.455L942.206 470.589L952.888 478.004L934.422 510.418L922.064 511.219L920.028 515.122L932.195 524.776L931.596 534.533L919.166 534.368L917.825 539.216L928.147 538.826L928.435 542.667L921.034 545.994L925.776 553.677L934.949 556.244L940.577 552.67L943.236 546.282L946.493 545.008L950.349 548.336L949.175 556.532L946.517 560.373L947.116 567.028L986.465 637.072Z" fill="white"/>
<path d="M986.968 492.363L988.07 501.134L1007.42 508.651L1038.44 510.623L1037.26 504.194L1016.55 499.305L998.967 490.329L986.968 492.363Z" fill="white"/>
<path d="M1044.95 503.701L1048.66 508.055L1061.21 508.138L1059.94 502.181L1044.95 503.701Z" fill="white"/>
<path d="M1045.36 514.033L1042.22 518.901L1050.36 532.17L1050.6 542.523L1052.09 545.296L1061.64 545.44L1067.06 540.982L1070.98 543.016L1071.77 549.322L1074.91 547.637L1075.1 539.585L1072.47 539.318L1070.82 532.478L1064.16 532.273L1062.51 528.473L1066.58 523.81L1066.65 521.51H1054.82L1045.36 514.033Z" fill="white"/>
<path d="M1126.48 617.846L1119.84 608.726L1124.66 602.933L1120.11 595.764L1115.82 595.066L1115 583.029L1108.59 572.368L1106.72 574.915L1102.43 581.16L1097.07 581.858L1094.38 578.839L1093.04 570.725L1089.02 564.234L1072.64 550.986L1076.66 548.705L1077.4 539.113L1083.39 530.486L1085.98 509.021L1094.65 503.947L1094.93 496.121L1100.13 497.6L1108.32 507.768L1102.24 518.942L1106.33 527.713L1116.46 531.123L1118.31 540.674L1131.91 542.482L1128.15 548.048L1111 553.841L1109.14 563.33L1121.73 577.216L1122.26 584.631L1119.31 587.178L1119.58 589.499L1128.97 601.31L1129.23 613.573L1126.48 617.846Z" fill="white"/>
<path d="M1127.89 549.692L1135.65 558.257V568.672L1138.33 569.822L1150.67 564.728L1153.08 565.426L1167.81 580.01L1167.29 589.972L1162.47 589.274L1158.19 586.953L1154.98 587.179L1149.35 595.272L1150.43 599.668L1154.98 601.742L1154.71 606.61L1151.5 608.007L1140.51 601.516V595.724L1135.96 595.498L1134.09 598.045L1133.13 623.967L1140.25 635.1L1152.84 645.515L1152.32 648.534L1145.61 648.308L1139.46 640.441H1133.01L1124.97 634.874L1122.55 629.082L1126.02 624.214L1127.22 619.818L1131 614.067L1130.83 600.838L1121.59 589.377L1121.21 587.98L1124.2 585.392L1123.51 576.292L1111.2 562.92L1112.63 555.217L1127.89 549.692Z" fill="white"/>
<path d="M1134.31 642.084L1139.12 651.348L1140.2 663.384L1146.64 671.95L1162.18 680.043L1168.08 680.515L1167 672.176L1161.9 661.536L1154.43 647.917L1153.8 650.3L1144.8 649.951L1138.33 641.981L1134.31 642.084Z" fill="white"/>
<path d="M1152.92 609.26L1162.71 618.236L1180.94 606.651L1182.54 588.37L1173.13 593.937L1168.25 591.595L1161.61 590.835L1157.9 588.596L1156.1 588.678L1151.24 595.518L1152.03 598.682L1156.96 601.044L1156.37 607.473L1152.92 609.26Z" fill="white"/>
<path d="M1140.92 534.204L1135.12 536.731L1130.31 548.768L1138.36 557.559L1137.01 567.275L1138.36 567.747L1151.74 562.181L1169.71 579.394L1169.27 590.239L1173.18 592.047L1182.83 585.33L1182.04 580.01L1154.19 557.312L1154.45 553.841L1157.92 551.766L1155.5 545.974L1143.98 544.351L1140.92 534.204Z" fill="white"/>
<path d="M1163.89 619.489L1166.74 623.33L1167.26 627.726L1174.76 628.425L1183.86 618.01L1192.43 615.936L1196.99 605.296L1194.85 588.165L1186.02 577.75L1176.7 571.362L1164.84 553.903L1173.35 541.701L1161.18 529.726L1151.43 529.356L1142.67 533.403L1145.28 543.078L1156.96 544.844L1160.1 552.3L1155.98 554.601L1156.25 556.45L1183.67 579.455L1184.75 586.213L1183.09 607.576L1163.89 619.489Z" fill="white"/>
<path d="M709.797 413.486L717.628 422.257L727.4 426.118L733.411 426.098L743.734 423.695L746.32 420.223L715.784 410.425L709.797 413.486Z" fill="white"/>
<path d="M743.95 425.255L755.446 438.114L752.069 441.503L743.926 440.291L733.819 432.527L734.37 427.433L743.95 425.255Z" fill="white"/>
<path d="M747.996 420.798L745.577 424.331L756.858 437.026L760.785 435.937L767.252 441.75L770.054 431.562L777.071 432.527L776.784 429.61L765.24 420.942L763.037 426.036L747.996 420.798Z" fill="white"/>
<path d="M743.782 441.812L740.86 444.42L741.147 448.549L744.788 452.924L757.697 465.043L755.733 469.891H753.481L752.356 474.739L759.661 482.749L766.39 483.242L779.874 499.244L787.442 499.737L793.334 503.372L793.621 510.644L816.925 522.29H825.618L830.959 518.408L837.689 518.162L841.617 525.926L866.788 528.925L867.531 520.996L875.865 518.408L876.248 515.574L869.614 507.809L854.837 497.621L862.597 491.561L862.046 488.891L852.322 487.597L848.203 459.456L847.724 452.986L821.355 444.338L809.668 446.598L803.129 453.479L797.334 453.15L795.657 454.362L782.748 453.643L766.462 443.455L760.403 437.765L757.625 438.34L752.619 443.25L743.782 441.812Z" fill="white"/>
<path d="M717.556 423.818L712.215 428.665L692.576 428.172L680.793 422.113L669.297 421.866L656.101 429.877L643.742 430.37L642.617 436.43H628.582L622.978 440.805V443.229L626.355 445.652V448.323L624.942 451.486L626.355 454.156L630.857 452.225L635.36 456.354L634.234 459.271L632.558 461.222L635.073 463.646L647.431 465.823L656.125 462.66V458.059L660.34 458.778L670.447 463.872L681.392 462.414L686.158 458.531L689.247 459.497V463.872H693.462L697.103 457.813L729.1 454.896L743.062 453.437L739.374 449.288L739.302 443.681L742.105 440.805L731.902 433.78L732.453 427.72H726.848L717.556 423.818Z" fill="white"/>
<path d="M749.386 588.226L752.835 597.017V605.603L761.122 612.053L819.511 591.656L820.062 586.049L810.698 571.629L787.203 578.058L773.719 589.438L758.08 581.509L749.386 588.226Z" fill="white"/>
<path d="M812.589 570.993L830.288 562.242L833.426 549.404L829.546 547.494L831.15 533.732L834.527 532.047L838.144 536.916L859.675 546.57V551.931L833.593 584.858L821.595 585.207L812.589 570.993Z" fill="white"/>
<path d="M802.124 538.333L804.207 545.481L827.822 547.268L829.474 532.602L834.025 530.466L835.27 525.104L827.822 526.892L819.535 537.634L802.124 538.333Z" fill="white"/>
<path d="M798.818 526.172L797.572 534.409L801.261 536.812L804.614 536.545L805.859 526.172L802.961 524.385L798.818 526.172Z" fill="white"/>
<path d="M776.449 501.832L771.06 499.326L767.324 502.551L767.731 509L776.425 511.856L776.449 501.832Z" fill="white"/>
<path d="M778.149 514.3L794.938 534.368L800.35 538.066L802.769 547.063L828.611 548.809L831.533 550.123L828.635 561.215L811.655 569.801L786.819 576.251L773.574 587.343L757.839 579.476L748.307 586.624L735.039 568.035L725.938 564.461L722.633 560.168V550.863L689.51 516.519L688.265 510.438H697.797L709.389 501.852L709.796 497.559L706.491 494.704L713.125 490.062L727.207 490.781L751.229 507.953L765.407 507.398L766.317 510.397L778.149 514.3Z" fill="white"/>
<path d="M688.744 464.776L687.906 469.994L694.66 472.417L694.372 486.878L701.126 486.755L707.88 482.38L710.419 482.01L725.746 471.555L728.836 456.375L698.204 459.045L694.971 465.125L688.744 464.776Z" fill="white"/>
<path d="M730.992 456.355L727.256 472.192L711.785 483.243L712.767 488.46L727.879 489.343L751.949 506.145L765.408 505.817L765.768 501.935L770.701 497.395L777.599 500.743L778.509 500.004L765.169 484.783L758.846 484.454L750.44 475.191L752.116 468.371L754.679 468.083L755.565 465.064L744.117 454.732L730.992 456.355Z" fill="white"/>
<path d="M694.086 488.706L688.194 506.33L687.931 509.021H697.199L707.57 501.174L707.833 498.196L703.594 494.478L711.186 489.075L710.085 484.063L708.001 484.474L701.678 488.356L694.086 488.706Z" fill="white"/>
<path d="M687.62 471.575L687.763 475.58L685.799 481.66L692.553 482.153L692.984 473.526L687.62 471.575Z" fill="white"/>
<path d="M685.512 483.119L681.728 493.451L686.638 505.837L692.266 487.74V483.858L685.512 483.119Z" fill="white"/>
<path d="M680.458 466.234L683.404 468.063L674.279 475.478L669.92 475.354L666.687 473.403L667.118 469.767L673.729 469.398L680.458 466.234Z" fill="white"/>
<path d="M613.998 203.929L618.836 200.889L618.405 197.479L615.339 195.959L615.77 191.789H618.405V189.509L606.981 186.859L589.856 188.379L588.108 194.829L584.156 193.699L581.522 189.899L573.163 190.269L572.277 197.479L568.326 198.999L566.122 195.199L548.543 207.339L552.064 210.748L545.477 213.398L530.533 238.828L525.264 241.868L525.695 244.148L530.964 246.428L529.646 251.357L520.857 250.967L518.222 248.317L512.522 254.007L509.002 256.287L508.116 261.607L505.05 263.127L497.147 264.647L493.195 275.287L495.829 292.747L498.895 300.717L502.416 303.757L510.319 303.387L521.743 293.897L526.126 287.448L527.443 296.937L534.915 285.558L535.347 253.658L541.43 250.371L543.25 232.768L561.691 209.988L570.481 207.339L574.433 203.169L587.605 205.819L594.191 209.228L596.395 199.738L607.388 194.049L613.998 203.929Z" fill="white"/>
<path d="M447.929 300.347L443.546 306.037L445.294 308.317H455.401V312.117L452.767 315.157L454.515 323.127L460.215 332.617L464.598 341.347L471.615 343.627L474.681 348.187L474.25 352.357L469.867 354.637L469.436 356.526L472.502 358.046L469.867 361.087L463.712 363.367L451.857 362.237L433.391 369.447L427.236 366.797L444.816 358.067L442.612 356.937L433.391 356.177L439.091 348.967L439.978 342.887L447.45 342.127L446.133 330.358L437.343 329.988L434.709 327.338L435.14 318.608L429.871 318.978L435.14 303.798L444.816 297.718L447.929 300.347Z" fill="white"/>
<path d="M429.488 325.797L421.584 326.557L421.153 332.637L426.422 335.677L432.122 334.547L434.326 331.137L429.488 325.797Z" fill="white"/>
<path d="M432.098 336.232L429.918 348.557L410.591 354.637H404.436L400.053 351.987V349.707L409.728 344.387L407.094 339.827L407.525 333.377L415.884 333.747L419.716 326.023L419.213 332.884L425.703 337.3L432.098 336.232Z" fill="white"/>
<path d="M571.511 208.941L576.205 212.659H584.995L589.833 220.629L591.15 234.288L579.295 241.498V248.708L570.936 258.588L566.098 258.958L559.512 268.448L559.943 277.568L571.367 284.777L570.481 288.947L566.098 294.637L559.512 299.567L559.943 315.897L549.837 318.937L546.316 325.387H541.478L538.844 314.007L527.851 299.546L536.88 286.585L537.502 254.562L543.729 251.625L545.238 233.302L562.985 211.509L571.511 208.941Z" fill="white"/>
<path d="M593.232 234.329L598.19 236.198L601.256 241.128L598.19 244.538L582.814 258.958L580.18 266.558L583.7 277.568L595.555 285.168L611.362 278.718L624.104 277.198L635.959 260.868L627.169 243.018L618.811 225.928L620.128 214.918L614.859 214.158L613.494 206.127L606.405 196.206L598.549 200.868L595.46 211.693L587.125 207.4L575.533 204.976L572.947 207.565L577.401 211.015L585.52 210.892L592.059 219.951L593.232 234.329Z" fill="white"/>
<path d="M620.248 305.051L603.843 302.771L604.202 310.638L619.41 318.608L625.637 317.047L625.278 311.049L620.248 305.051Z" fill="white"/>
<path d="M593.162 297.389L589.449 297.287L587.294 299.156L588.851 301.128L592.563 301.333L594.479 298.95L593.162 297.389Z" fill="white"/>
<path d="M592.802 305.77L589.209 305.462L582.743 312.097V315.198L584.898 315.917L589.089 316.02L596.035 311.152L596.993 309.488L592.802 305.77Z" fill="white"/>
<path d="M602.86 311.891L597.711 311.789L590.646 317.581H584.658L585.018 324.832L581.425 330.522L594.358 330.624L598.07 330.214L601.782 334.055L610.285 333.747L618.428 324.853L617.949 319.574L602.86 311.891Z" fill="white"/>
<path d="M602.502 335.698L606.095 340.771L604.658 344.818L604.897 348.022L606.215 351.863L613.639 348.248L622.86 348.453L629.326 350.733H645.732L650.522 340.894L653.396 337.177V334.691L643.097 322.264L633.996 319.162L626.572 318.443L620.106 320.21L620.345 325.797L611.364 335.533L602.502 335.698Z" fill="white"/>
<path d="M604.417 353.096L606.453 356.3L606.932 359.71L605.256 363.017L601.424 369.343L598.19 370.596L593.999 369.035L591.484 369.138L585.377 371.11L578.432 369.343L567.175 362.503L556.158 357.43L551.728 351.637L550.889 337.978L559.511 331.548L570.768 328.344L574.959 327.933L573.283 330.829L574.36 331.959L593.305 332.267L597.376 332.165L604.082 340.977L602.406 344.592L603.124 348.844L604.417 353.096Z" fill="white"/>
<path d="M453.293 415.211H422.781L416.626 412.828L413.656 413.013L410.064 419.422L411.333 426.015L422.997 426.94L424.482 431.15L419.404 455.697L419.62 460.092L427.883 463.934L437.415 464.488L456.479 460.462L465.795 450.397L466.011 440.147L482.536 427.33L483.374 421.661L468.334 421.476L453.293 415.211Z" fill="white"/>
<path d="M411.549 428.028L410.065 445.796L405.825 449.083L406.257 451.096L409.226 455.306L407.31 460.442L410.496 461.366L417.92 460.627L417.489 455.491L422.351 431.685L421.297 428.398L411.549 428.028Z" fill="white"/>
<path d="M483.806 440.292L479.998 441.401L480.836 444.338H486.344L488.668 442.14L483.806 440.292Z" fill="white"/>
<path d="M523.228 432.424L516.881 435.177L517.72 445.796L522.797 446.536L526.605 443.414V433.349L523.228 432.424Z" fill="white"/>
<path d="M523.874 419.237L519.204 423.263L518.772 426.919L522.58 428.932L524.065 428.747L524.904 423.427L523.874 419.237Z" fill="white"/>
<path d="M482.131 361.189L476.838 362.298L466.252 372.178L463.067 372.363L458.828 369.796L456.073 370.35L453.966 376.019L438.494 376.389L438.925 379.326L449.511 385.365L461.797 393.787L461.582 403.852L455.02 413.732L469.222 419.586L483.64 419.956L488.094 415.56L497.195 415.745L499.734 417.758L508.835 417.204L513.505 412.068L507.565 406.029L507.134 402.188L508.404 397.977L505.434 394.321L500.357 395.595L499.71 392.308L510.942 381.689V375.28L503.518 371.624L499.71 371.069L482.131 361.189Z" fill="white"/>
<path d="M505.336 339.765L494.487 344.346L496.786 346.133L497.026 350.713L494.727 350.323L492.188 346.934L486.129 355.171L495.445 356.835L498.918 359.977L500.762 360.018L501.983 352.911L507.851 350.796L505.336 339.765Z" fill="white"/>
<path d="M485.028 356.711L483.495 359.997L499.973 369.323L504.715 370.288L504.882 365.872L500.739 361.887H498.2L494.728 358.498L485.028 356.711Z" fill="white"/>
<path d="M507.851 338.964L516.401 337.773V332.596L523.562 331.59L527.49 334.979L531.634 335.369L538.1 332.966L543.872 334.363L548.949 338.142L549.644 352.295L554.721 358.087L548.039 358.889L536.95 364.866L537.884 366.858L547.8 374.828L547.105 378.813L537.884 382.798L529.334 383.003L527.251 386.783H522.868L520.784 382.798L513.168 381.196L512.929 374.623L506.462 370.843L507.157 366.057L502.774 360.881L503.924 354.103L509.911 351.699L507.851 338.964Z" fill="white"/>
<path d="M521.336 305.318L511.396 314.747L511.037 320.888L515.564 331.015L522.653 329.865L521.767 321.587L526.652 316.903L526.557 313.227L523.108 305.565L521.336 305.318Z" fill="white"/>
<path d="M532.52 322.038L530.293 321.956L527.371 324.257L527.73 327.851L534.652 328.016L535.011 323.949L532.52 322.038Z" fill="white"/>
<path d="M573.354 302.586L568.301 306.016L570.839 311.049L575.318 307.31L573.354 302.586Z" fill="white"/>
<path d="M512.09 383.126L501.648 392.657L501.864 393.623L506.151 392.472L510.006 397.074L516.521 395.102L521.023 398.101L522.868 397.197L528.424 389.72L527.011 388.57L521.526 388.447L518.868 383.784L512.09 383.126Z" fill="white"/>
<path d="M549.261 373.863H556.374H559.871L565.547 377.334L576.061 369.837L565.858 363.592L555.751 359.402L548.83 360.47L539.441 365.646L549.261 373.863Z" fill="white"/>
<path d="M567.007 378.505L568.66 379.758L568.875 381.894L587.149 381.545L600.657 376.553L600.441 371.48L597.855 372.466L594.143 370.761L591.867 370.679L585.88 372.733L577.737 371.048L567.007 378.505Z" fill="white"/>
<path d="M530.58 384.647L529.023 387.42L530.365 389.392L535.945 388.406H540.687L545.836 392.144L556.781 390.439L564.828 386.331L566.888 383.558L566.577 379.984L559.344 375.342L549.644 375.424L548.83 380.148L538.627 384.421L530.58 384.647Z" fill="white"/>
<path d="M569.164 383.579L566.386 387.317L566.601 393.028L571.032 394.979L584.659 395.328L603.652 381.607L603.748 378.567L601.688 377.684L587.965 383.024L569.164 383.579Z" fill="white"/>
<path d="M564.517 388.488L558.434 391.61L547.082 393.746L549.357 399.374L557.308 399.457L564.637 394.198L564.517 388.488Z" fill="white"/>
<path d="M566.481 394.999L558.027 400.976H549.453L548.423 406.152L552.351 407.035L554.315 404.529L557.404 406.851L559.871 414.245L576.804 421.024L578.48 419.38L561.308 404.18L563.056 401.407L579.366 400.873L581.019 396.416L570.385 396.683L566.481 394.999Z" fill="white"/>
<path d="M564.518 402.764L563.632 404.017L579.702 418.231L585.594 410.795L585.378 407.858L580.229 402.497L564.518 402.764Z" fill="white"/>
<path d="M510.558 398.737L509.073 401.962L509.48 405.475L515.204 411.206L524.21 410.939L544.088 430.74L556.494 433.821L563.823 439.757L565.571 453.294L569.499 451.322L572.9 443.948L572.061 438.648L577.881 438.196L578.719 435.197L562.314 428.46L546.746 415.334L540.543 407.488L539.035 400.032L546.962 398.409L544.926 393.5L540.064 389.987L535.873 389.823L530.029 391.199L524.521 397.813L521.192 399.703L516.043 396.991L510.558 398.737Z" fill="white"/>
<path d="M558.865 452.226L555.392 450.624L543.537 452.226L543.944 454.978L554.602 459.579L556.206 461.079L559.008 461.428L558.865 452.226Z" fill="white"/>
<path d="M559.272 467.528L555.272 468.227L555.416 472.027L559.009 473.054L560.613 471.904L559.272 467.528Z" fill="white"/>
<path d="M614.261 349.789L607.315 353.137L609.04 359.464L602.621 371.069L602.669 376.184L605.687 377.827L625.038 378.649L630.451 374.808L636.247 376.471L644.557 385.982L638.474 395.348L645.707 397.156L655.167 387.81L660.58 388.652L665.609 391.651L661.178 396.663L667.166 404.674H673.537L676.818 399.333L683.572 398.162L683.763 393.828L671.213 392.165L671.597 387.502H683.763L696.888 378.484L702.684 374.15L703.642 360.47L677.776 358.478L667.166 345.64L659.837 343.483L650.952 343.812L646.952 352.295L628.75 352.5L622.835 350.159L614.261 349.789Z" fill="white"/>
<path d="M626.667 379.697L634.091 389.495L633.469 395.041L636.127 395.143L642.426 386.003L634.858 377.951L630.571 376.431L626.667 379.697Z" fill="white"/>
<path d="M606.141 379.47L605.519 382.51L591.652 392.411L603.244 406.995L610.668 411.452H624.032L628.439 408.289L634.354 407.632L638.761 409.912L646.569 402.291L645.06 398.47L637.133 396.724L631.72 396.499L631.983 389.967L624.798 380.271L606.141 379.47Z" fill="white"/>
<path d="M588.712 419.829L588.604 417.907L585.442 414.1L580.325 420.306L581.33 422.914L585.498 423.572L588.712 419.829Z" fill="white"/>
<path d="M590.264 393.724L585.353 396.889H582.958L581.33 401.242L587.126 407.015L587.509 411.597L586.691 412.587L590.611 417.309L590.746 419.813L593.567 422.156L602.763 419.753L601.996 408.535L590.264 393.724Z" fill="white"/>
<path d="M604.369 409.85L604.752 420.079L608.776 427.268L623.888 427.494L630.69 423.365L637.372 421.085L635.743 414.553L637.252 411.062L633.851 409.542L629.181 409.87L625.517 413.033L610.141 413.136L604.369 409.85Z" fill="white"/>
<path d="M586.599 424.988V434.458L589.76 439.572L592.035 439.346L595.939 433.246L593.664 430.514L592.778 423.756L589.76 421.353L586.599 424.988Z" fill="white"/>
<path d="M603.124 421.394L595.053 423.674L595.436 429.549L597.328 431.623L606.908 427.803L603.124 421.394Z" fill="white"/>
<path d="M593.041 441.092L592.777 443.824L603.866 448.61L609.159 450.356L606.381 452.862L600.202 453.396L599.316 455.8L601.447 459.928L608.369 463.092L611.386 463.317L611.77 456.231L616.296 451.548L603.938 439.018L605.567 434.766L608.465 434.663L612.871 437.703L615.649 436.512L616.536 432.26L629.516 432.363L630.019 425.831L624.607 429.097L608.728 428.768L598.406 433.348L593.041 441.092Z" fill="white"/>
<path d="M632.103 424.866L631.72 432.158L639.145 430.206L642.546 428.255L641.54 425.092L638.019 422.688L632.103 424.866Z" fill="white"/>
<path d="M617.111 467.775L621.015 467.878L622.644 469.952H628.32L632.104 468.761L633.373 470.075L630.859 472.91L619.77 473.239L617.758 470.959L615.626 469.87L617.111 467.775Z" fill="white"/>
</g>
</svg>
